<?xml version="1.0" encoding="UTF-8"?>
<!DOCTYPE svg PUBLIC "-//W3C//DTD SVG 1.1//EN" "http://www.w3.org/Graphics/SVG/1.1/DTD/svg11.dtd">
<!-- Creator: CorelDRAW -->
<svg xmlns="http://www.w3.org/2000/svg" xml:space="preserve" width="6.82666in" height="6.82666in" style="shape-rendering:geometricPrecision; text-rendering:geometricPrecision; image-rendering:optimizeQuality; fill-rule:evenodd; clip-rule:evenodd"
viewBox="0 0 6.82666 6.82666"
 xmlns:xlink="http://www.w3.org/1999/xlink">
 <defs>
  <style type="text/css">
   <![CDATA[
    .fil1 {fill:none}
    .fil0 {fill:#212121;fill-rule:nonzero}
   ]]>
  </style>
 </defs>
 <g id="Layer_x0020_1">
  <metadata id="CorelCorpID_0Corel-Layer"/>
  <g id="_558163352">
   <path id="_558163040" class="fil0" d="M1.33333 0.853331l3.09333 0c0.0589094,0 0.106669,0.0477598 0.106669,0.106669l0 0.881591c0,0.0589094 -0.0477598,0.106669 -0.106669,0.106669 -0.00463386,0 -0.00920079,-0.000295276 -0.0136811,-0.000870079 -0.0126693,-0.000850394 -0.0229134,-0.00142913 -0.0305433,-0.00170079 -0.00598819,-0.000216535 -0.018185,-0.000330709 -0.0370827,-0.000330709 -0.287559,0 -0.54789,0.116551 -0.736323,0.30498 -0.188429,0.188433 -0.30498,0.448764 -0.30498,0.736323 0,0.287559 0.116551,0.54789 0.30498,0.736323 0.188433,0.188429 0.448764,0.30498 0.736323,0.30498 0.0188976,0 0.0310945,-0.000114173 0.0370827,-0.000330709 0.00884646,-0.000314961 0.0212047,-0.00103937 0.0367795,-0.00212992l-1.1811e-005 -0.000177165c0.0587638,-0.00411811 0.109744,0.040185 0.113862,0.0989488 0.000173228,0.00250394 0.000259843,0.00498819 0.000259843,0.00745669l3.93701e-006 0 0 0.000751969 0 1.73418c0,0.0589094 -0.0477598,0.106669 -0.106669,0.106669 -0.0349843,0 -0.0660315,-0.0168425 -0.0854843,-0.0428583l-1.46119 -1.76349 -1.46458 1.76759 -0.0820827 -0.0679173 0.0821378 0.0680551c-0.0375827,0.0453622 -0.104831,0.0516654 -0.150193,0.0140827 -0.0254409,-0.0210787 -0.0385945,-0.0514882 -0.0386102,-0.0821378l-3.93701e-006 0 0 -0.000267717 0 -4.90639c0,-0.0589094 0.0477598,-0.106669 0.106669,-0.106669zm2.98667 0.213339l-2.88 0 0 4.50427 1.35439 -1.6346c0.00498819,-0.00669685 0.0108386,-0.0129134 0.0175551,-0.0184764 0.0453622,-0.0375827 0.11261,-0.0312795 0.150193,0.0140827l-0.0821378 0.0680551 0.0820827 -0.0679173 1.35792 1.63885 0 -1.32991c-0.336374,-0.00667323 -0.640299,-0.145717 -0.861795,-0.367209 -0.227047,-0.227051 -0.367484,-0.540713 -0.367484,-0.887157 0,-0.346445 0.140437,-0.660106 0.367484,-0.887157 0.221496,-0.221492 0.525421,-0.360535 0.861795,-0.367209l0 -0.665626z"/>
   <path id="_558163208" class="fil0" d="M4.34536 1.73202c0.346445,0 0.660106,0.140437 0.887157,0.367484 0.227047,0.227051 0.367484,0.540713 0.367484,0.887157 0,0.346445 -0.140437,0.660106 -0.367484,0.887157 -0.227051,0.227047 -0.540713,0.367484 -0.887157,0.367484 -0.346445,0 -0.660106,-0.140437 -0.887157,-0.367484 -0.227047,-0.227051 -0.367484,-0.540713 -0.367484,-0.887157 0,-0.346445 0.140437,-0.660106 0.367484,-0.887157 0.227051,-0.227047 0.540713,-0.367484 0.887157,-0.367484zm0.736323 0.518319c-0.188433,-0.188429 -0.448764,-0.30498 -0.736323,-0.30498 -0.287559,0 -0.54789,0.116551 -0.736323,0.30498 -0.188429,0.188433 -0.30498,0.448764 -0.30498,0.736323 0,0.287559 0.116551,0.54789 0.30498,0.736323 0.188433,0.188429 0.448764,0.30498 0.736323,0.30498 0.287559,0 0.54789,-0.116551 0.736323,-0.30498 0.188429,-0.188433 0.30498,-0.448764 0.30498,-0.736323 0,-0.287559 -0.116551,-0.54789 -0.30498,-0.736323z"/>
   <path id="_558163520" class="fil0" d="M4.44607 2.33153l0.151681 0.364689 0.409114 0.0382441 -0.00958268 0.105835 0.00992913 -0.106205c0.0586535,0.00548031 0.101756,0.0574803 0.0962756,0.116134 -0.00293701,0.0314449 -0.019252,0.0584134 -0.0427913,0.0758307l-0.298815 0.255972 0.0901417 0.401319 -0.103752 0.0233346 0.104075 -0.023378c0.0129094,0.0574764 -0.0232205,0.114543 -0.0806969,0.127453 -0.0307323,0.00690157 -0.0613425,-0.000216535 -0.0851496,-0.017122l-0.335874 -0.20515 -0.353886 0.209787 9.84252e-005 0.000165354c-0.0506732,0.0300394 -0.11611,0.013311 -0.14615,-0.0373622 -0.0151929,-0.0256299 -0.0184173,-0.0550354 -0.0113386,-0.0817323l0.0924094 -0.387417 -0.308724 -0.27161 -5.90551e-005 6.69291e-005c-0.0442283,-0.0389094 -0.0485394,-0.106315 -0.00962992,-0.150543 0.0200787,-0.0228228 0.0477441,-0.0350157 0.0758976,-0.036126l0.395319 -0.0316929 0.162878 -0.377461 0.0979173 0.0420827 -0.097937 -0.0422598c0.0233386,-0.0540866 0.0861102,-0.0790157 0.140197,-0.0556772 0.0285433,0.012315 0.0489567,0.0356181 0.0584528,0.0628228zm0.0778858 0.46452l-0.0983346 0.0408346 -0.0820118 -0.197185 -0.0868465 0.201256c-0.0141732,0.037311 -0.0488031,0.0651063 -0.0912323,0.0685039l-0.00852362 -0.106327 0.00833465 0.106252 -0.212657 0.0170472 0.164469 0.144697c0.0310984,0.0250118 0.0468268,0.0665315 0.0369528,0.107929l-3.93701e-005 -7.87402e-006 -0.0495669 0.207795 0.186693 -0.110673c0.0335866,-0.0229134 0.0788425,-0.0255039 0.115791,-0.00293701l-0.000137795 0.000224409 0.182642 0.111559 -0.0472835 -0.210516c-0.0122244,-0.0394252 -0.000850394,-0.0841024 0.0324882,-0.112661l0.0693937 0.0810079 -0.0691654 -0.0808346 0.162583 -0.139272 -0.213961 -0.02c-0.0416299,-0.000181102 -0.0810827,-0.024878 -0.0980748,-0.0657283l0.0984882 -0.0409646z"/>
  </g>
 </g>
 <rect class="fil1" width="6.82666" height="6.82666"/>
</svg>
