<?xml version="1.0" standalone="no"?>
<!DOCTYPE svg PUBLIC "-//W3C//DTD SVG 20010904//EN"
 "http://www.w3.org/TR/2001/REC-SVG-20010904/DTD/svg10.dtd">
<svg version="1.0" xmlns="http://www.w3.org/2000/svg"
 width="500.000000pt" height="500.000000pt" viewBox="0 0 500.000000 500.000000"
 preserveAspectRatio="xMidYMid meet">

<g transform="translate(0.000000,500.000000) scale(0.100000,-0.100000)"
fill="#000000" stroke="none">
<path d="M2291 4076 c-7 -8 -21 -12 -31 -9 -11 3 -20 0 -20 -6 0 -6 5 -11 10
-11 6 0 5 -6 -2 -14 -14 -15 -32 -11 -23 5 14 21 -32 -6 -57 -35 -26 -29 -35
-59 -29 -96 2 -8 3 -27 2 -42 0 -16 4 -28 10 -28 6 0 7 -5 4 -10 -7 -12 13
-42 24 -36 4 3 7 -3 7 -12 0 -9 4 -28 8 -42 l9 -25 -26 28 c-15 15 -26 28 -26
30 0 1 -25 29 -55 61 -57 62 -92 81 -83 45 3 -13 0 -19 -10 -19 -10 0 -14 -6
-11 -18 4 -15 0 -18 -17 -16 -20 2 -22 -1 -18 -29 6 -38 20 -67 33 -67 5 0 14
-10 21 -21 7 -15 8 -19 0 -15 -7 5 -9 1 -5 -9 4 -9 9 -13 12 -10 3 3 14 -3 24
-12 13 -12 22 -13 29 -6 8 8 19 2 40 -20 16 -16 29 -25 29 -20 0 16 39 10 51
-7 9 -12 10 -10 6 8 -3 12 -1 20 4 16 5 -3 9 -12 9 -20 0 -8 3 -13 8 -13 21 4
30 -3 25 -20 -3 -10 0 -22 6 -25 5 -4 8 -13 4 -21 -7 -19 15 -47 30 -38 6 3 7
1 3 -6 -4 -6 -12 -9 -17 -6 -5 4 -9 1 -9 -4 0 -6 5 -11 10 -11 6 0 10 -5 10
-11 0 -5 -4 -7 -10 -4 -5 3 -10 -1 -10 -9 0 -9 5 -16 11 -16 5 0 7 -5 3 -11
-4 -7 0 -9 14 -5 12 4 23 2 28 -5 5 -8 3 -9 -6 -4 -7 4 -15 3 -19 -2 -3 -5
-22 -17 -41 -27 l-35 -17 35 5 c19 3 108 9 197 12 166 7 327 -7 358 -30 22
-17 45 -122 45 -208 0 -42 5 -80 10 -83 6 -3 10 -1 10 4 0 6 4 11 10 11 5 0 6
-8 3 -17 -6 -16 -5 -16 11 -4 21 17 56 84 56 106 0 20 16 19 24 -1 28 -72 -48
-194 -121 -194 -16 0 -23 -8 -28 -30 -4 -16 -16 -44 -29 -62 -37 -56 -37 -55
-3 -50 18 3 39 14 47 26 22 30 30 64 17 70 -7 2 1 5 16 5 18 1 37 11 50 27 12
14 30 35 40 45 9 10 14 19 10 19 -4 0 3 7 15 16 19 13 22 24 21 62 -1 26 -8
55 -15 66 -10 15 -10 23 0 40 27 47 10 69 -91 123 -72 38 -135 87 -126 97 3 3
12 -2 19 -12 12 -16 13 -16 13 3 1 45 17 110 26 105 5 -3 16 7 23 22 9 19 19
26 32 23 11 -2 20 1 20 6 0 6 4 8 9 5 5 -3 26 3 48 13 21 11 53 25 71 33 17 7
32 16 32 20 0 7 -20 5 -36 -4 -5 -4 -35 -9 -65 -12 -30 -4 -48 -3 -41 0 6 3
10 9 8 13 -3 4 0 8 7 8 23 0 92 38 114 63 15 18 20 32 16 50 -6 23 -5 24 12
10 17 -13 18 -13 10 0 -10 16 -12 21 -14 45 0 8 -4 14 -8 13 -5 -1 -21 2 -36
7 -21 6 -25 10 -15 16 10 6 10 9 1 9 -7 0 -13 7 -13 15 0 20 -50 32 -61 14 -5
-8 -9 -10 -9 -5 0 5 -7 3 -15 -4 -11 -9 -15 -9 -15 -1 0 7 -4 10 -9 6 -6 -3
-8 6 -5 21 3 14 1 23 -4 20 -11 -6 -9 25 3 43 6 10 4 12 -5 6 -10 -6 -12 -4
-7 7 3 9 -3 25 -14 36 -10 12 -19 25 -19 29 0 5 -8 9 -19 9 -11 0 -17 -5 -14
-13 3 -7 0 -13 -6 -13 -6 0 -11 6 -11 13 0 8 -6 14 -12 14 -7 0 -17 2 -23 3
-21 5 -36 -1 -29 -12 4 -6 3 -8 -4 -5 -5 4 -8 17 -4 29 3 14 2 19 -7 14 -6 -4
-9 -11 -7 -15 3 -4 1 -13 -5 -21 -7 -12 -9 -12 -9 -1 0 8 -6 11 -16 7 -8 -3
-12 -2 -9 4 3 6 2 10 -4 10 -5 0 -12 -4 -16 -9 -3 -6 -14 -8 -25 -6 -12 2 -17
-1 -14 -9 3 -8 -2 -13 -13 -13 -49 0 -59 -3 -43 -13 8 -5 10 -10 4 -10 -6 0
-18 8 -28 19 -11 12 -28 17 -51 15 -23 -1 -33 1 -29 8 4 7 2 8 -4 4 -15 -9
-54 12 -47 24 3 6 -1 7 -9 4 -9 -3 -16 -2 -16 4 0 12 -42 3 -51 -11 -4 -5 -12
-6 -19 -2 -9 6 -9 9 1 16 8 5 9 9 3 9 -6 0 -17 -6 -23 -14z m79 -10 c0 -11
-19 -15 -25 -6 -3 5 1 10 9 10 9 0 16 -2 16 -4z m-70 -32 c0 -2 -7 -4 -15 -4
-8 0 -15 4 -15 10 0 5 7 7 15 4 8 -4 15 -8 15 -10z m345 -3 c3 -5 2 -12 -3
-15 -5 -3 -9 1 -9 9 0 17 3 19 12 6z m-50 -52 c11 -17 -1 -21 -15 -4 -8 9 -8
15 -2 15 6 0 14 -5 17 -11z m-417 -44 c-3 -3 -9 2 -12 12 -6 14 -5 15 5 6 7
-7 10 -15 7 -18z m802 -86 c0 -6 -4 -7 -10 -4 -5 3 -10 11 -10 16 0 6 5 7 10
4 6 -3 10 -11 10 -16z m-595 -8 c-3 -6 3 -15 14 -20 10 -6 28 -26 40 -44 32
-53 80 -177 70 -183 -10 -6 -98 25 -159 56 -70 36 -101 107 -67 153 9 14 64
37 105 46 2 1 1 -3 -3 -8z m282 -87 c-5 -50 -20 -67 -52 -58 -14 4 -16 3 -7
-4 11 -7 10 -11 -4 -16 -9 -3 -19 -4 -22 -1 -3 3 1 5 8 5 7 0 10 3 7 7 -4 3 5
21 19 40 14 18 20 32 13 31 -22 -5 -20 19 3 30 37 18 41 14 35 -34z m-56 0
c12 -15 11 -16 -11 -10 -19 6 -21 5 -10 -3 12 -8 12 -13 2 -23 -21 -21 -35 12
-15 34 19 22 18 22 34 2z m-40 -63 c-6 -4 -14 -18 -20 -31 -9 -23 -10 -22 -6
10 2 19 4 39 4 44 1 5 8 3 16 -4 10 -8 12 -16 6 -19z m145 -26 c-25 -38 -61
-57 -98 -53 l-33 4 42 20 c24 10 43 22 43 25 0 7 -53 -9 -80 -24 -8 -5 0 5 19
22 34 30 113 55 119 39 2 -5 -3 -20 -12 -33z m-113 -128 c55 -51 69 -78 46
-93 -13 -7 -139 114 -139 133 0 27 37 11 93 -40z m-103 31 c0 -19 -102 -118
-122 -118 -45 0 -21 39 61 98 48 35 61 39 61 20z m-187 -59 c-4 -15 -8 -17
-14 -8 -6 11 4 28 18 29 0 0 -1 -9 -4 -21z m17 -39 c0 -5 -5 -10 -11 -10 -5 0
-7 -4 -4 -10 3 -5 -1 -10 -10 -10 -13 0 -14 4 -5 20 11 21 30 27 30 10z m557
-362 c-3 -8 -6 -5 -6 6 -1 11 2 17 5 13 3 -3 4 -12 1 -19z"/>
<path d="M2369 3773 c20 -21 52 -56 70 -78 l33 -40 -22 41 c-28 51 -84 114
-103 114 -9 0 0 -15 22 -37z"/>
<path d="M2326 3769 c26 -29 77 -80 104 -104 l23 -20 -11 20 c-17 33 -107 125
-122 125 -9 0 -8 -6 6 -21z"/>
<path d="M2410 3776 c0 -2 8 -10 18 -17 15 -13 16 -12 3 4 -13 16 -21 21 -21
13z"/>
<path d="M2300 3760 c0 -16 97 -110 114 -110 6 0 -5 14 -24 31 -19 17 -47 45
-62 62 -16 18 -28 25 -28 17z"/>
<path d="M2330 3686 c0 -2 8 -10 18 -17 15 -13 16 -12 3 4 -13 16 -21 21 -21
13z"/>
<path d="M3550 4022 c0 -4 6 -14 13 -21 10 -11 10 -13 0 -7 -8 4 -13 1 -13 -8
0 -19 -26 -21 -37 -3 -4 8 -18 16 -31 20 -20 5 -22 2 -17 -16 6 -21 5 -21 -13
2 l-19 24 -6 -23 c-3 -12 -10 -19 -16 -16 -15 10 -81 -34 -81 -54 0 -10 7 -25
15 -33 11 -12 12 -17 2 -20 -6 -3 -3 -6 9 -6 30 -1 36 -12 19 -31 -21 -24 -8
-58 26 -65 16 -4 34 -3 40 1 9 5 10 2 6 -9 -3 -10 -3 -17 2 -17 4 0 3 -21 -2
-47 -9 -35 -8 -48 1 -51 38 -12 -20 -32 -108 -36 -17 0 -30 -4 -30 -9 0 -4
-14 -13 -30 -19 -20 -6 -33 -19 -37 -36 -10 -39 -10 -46 1 -60 7 -9 6 -16 -3
-21 -10 -6 -9 -10 3 -14 9 -4 16 -16 16 -27 0 -11 6 -20 14 -20 8 0 22 -7 30
-16 9 -8 16 -11 16 -6 0 5 7 9 15 9 12 0 12 -3 2 -16 -10 -12 -9 -14 8 -7 30
13 57 12 62 -1 3 -7 -3 -9 -18 -6 -15 4 -20 2 -15 -5 3 -6 1 -14 -5 -18 -8 -5
-9 -3 -4 6 5 8 3 11 -5 8 -8 -2 -15 -13 -17 -24 -1 -10 -5 -35 -9 -54 -5 -32
-3 -36 25 -47 17 -6 31 -16 31 -23 0 -6 -4 -8 -10 -5 -5 3 -10 1 -10 -5 0 -6
-4 -9 -9 -6 -5 3 -12 -1 -15 -10 -3 -8 -2 -12 4 -9 6 3 7 -1 4 -9 -3 -9 -9
-14 -13 -12 -4 3 -12 -4 -19 -15 -7 -10 -8 -19 -3 -19 5 0 12 6 14 13 3 6 6 3
6 -7 1 -11 4 -17 7 -13 6 6 19 -2 56 -38 11 -11 17 -14 13 -6 -6 11 -4 13 9 8
80 -31 95 -19 88 71 -5 74 11 122 47 142 35 18 52 11 68 -27 14 -36 14 -62 -1
-163 -3 -24 -1 -25 29 -22 43 5 43 5 44 315 1 145 5 257 11 268 6 10 28 24 50
30 22 7 40 16 40 21 0 5 9 7 20 3 20 -6 60 10 60 24 0 5 -11 19 -25 32 -13 13
-25 30 -25 37 0 10 -5 10 -21 1 -20 -10 -21 -9 -14 21 8 35 7 35 -55 19 -10
-3 -16 5 -18 25 -2 18 0 26 7 21 6 -3 11 -4 11 -2 0 8 -42 52 -51 53 -5 1 -14
2 -20 3 -5 0 -8 5 -5 9 5 8 -47 54 -61 53 -4 0 -18 7 -30 15 -13 8 -23 11 -23
6z m-50 -52 c0 -5 -4 -10 -10 -10 -5 0 -10 5 -10 10 0 6 5 10 10 10 6 0 10 -4
10 -10z m-95 -160 c3 -5 -1 -10 -10 -10 -9 0 -13 5 -10 10 3 6 8 10 10 10 2 0
7 -4 10 -10z m369 -36 c8 -21 -1 -34 -25 -34 -12 0 -19 7 -19 18 0 34 33 45
44 16z m-234 -190 c0 -8 -4 -12 -10 -9 -5 3 -10 10 -10 16 0 5 5 9 10 9 6 0
10 -7 10 -16z m-20 -64 c0 -5 -5 -10 -11 -10 -5 0 -7 5 -4 10 3 6 8 10 11 10
2 0 4 -4 4 -10z m-240 -20 c0 -5 -5 -10 -11 -10 -5 0 -7 5 -4 10 3 6 8 10 11
10 2 0 4 -4 4 -10z m228 -22 c32 -32 -8 -80 -48 -58 -34 18 -19 70 20 70 9 0
21 -5 28 -12z m102 -24 c0 -8 -4 -12 -10 -9 -5 3 -10 10 -10 16 0 5 5 9 10 9
6 0 10 -7 10 -16z m-170 -89 c0 -8 -4 -15 -10 -15 -5 0 -10 7 -10 15 0 8 5 15
10 15 6 0 10 -7 10 -15z m12 -97 c-8 -8 -9 -4 -5 13 4 13 8 18 11 10 2 -7 -1
-18 -6 -23z"/>
<path d="M3470 3450 c0 -5 5 -10 10 -10 6 0 10 5 10 10 0 6 -4 10 -10 10 -5 0
-10 -4 -10 -10z"/>
<path d="M1163 3783 c-7 -2 -13 -10 -13 -16 0 -7 -7 -25 -15 -41 -8 -15 -12
-33 -9 -38 4 -6 -5 -20 -20 -33 -45 -39 -27 -52 91 -66 105 -13 106 -13 119
-46 8 -19 14 -69 14 -123 0 -50 5 -100 11 -112 8 -16 19 -152 19 -246 0 -11 8
-13 30 -8 17 3 30 1 30 -4 0 -9 -10 -13 -62 -24 -26 -6 -28 -10 -29 -56 -1
-28 -3 -54 -4 -60 -1 -5 -3 -19 -4 -30 -1 -19 -31 -30 -31 -11 0 6 -8 10 -17
10 -10 0 -108 7 -218 15 -257 20 -238 20 -230 -4 4 -11 2 -20 -4 -20 -10 0
-15 14 -12 33 0 4 -15 7 -34 7 -24 0 -39 -6 -47 -20 -7 -11 -18 -20 -25 -20
-26 0 -50 -148 -34 -208 9 -32 15 -40 28 -35 13 5 15 2 11 -15 -4 -16 -2 -19
10 -15 11 5 13 3 7 -8 -4 -8 2 -4 14 8 11 12 20 26 19 30 -6 22 25 74 63 105
60 49 115 75 174 83 28 3 57 9 65 12 8 3 44 7 80 10 42 2 69 9 77 19 9 13 14
13 32 2 12 -7 24 -21 27 -30 6 -20 34 -13 34 8 0 15 13 17 68 14 21 -1 38 4
46 15 8 12 18 14 34 8 19 -7 31 -1 68 33 50 47 113 68 178 59 49 -7 101 6 101
25 0 14 -34 20 -146 23 -50 1 -74 6 -69 12 5 6 -12 9 -48 8 -49 -2 -52 -1 -20
6 85 18 115 63 116 179 1 53 -2 71 -8 57 -5 -11 -9 -36 -9 -56 -1 -39 -24
-104 -44 -124 -26 -26 -60 -37 -94 -30 -27 5 -33 3 -27 -7 4 -8 3 -10 -2 -5
-5 5 -8 11 -6 13 1 3 -9 15 -24 29 -15 14 -23 29 -18 36 5 8 3 9 -6 4 -20 -13
-5 63 19 96 11 15 17 29 13 32 -4 2 -2 3 4 1 6 -1 28 15 49 36 68 70 126 75
154 13 18 -40 13 -162 -9 -211 l-19 -42 35 4 c40 4 76 32 57 44 -6 4 -11 34
-11 73 0 37 -2 71 -5 76 -3 5 0 22 8 37 8 14 10 24 4 20 -6 -3 -5 3 3 15 7 12
16 21 21 21 4 0 6 4 3 9 -3 5 9 20 26 35 18 14 26 26 20 26 -7 0 -12 7 -12 15
0 8 6 15 13 15 7 0 18 13 24 30 9 23 8 32 -3 41 -8 6 -14 20 -14 30 0 12 -10
21 -27 25 -16 3 -41 9 -58 13 -16 4 -40 7 -52 6 -13 -1 -23 3 -23 9 0 7 -3 7
-8 1 -11 -15 -32 -17 -32 -3 0 9 -3 9 -12 0 -17 -17 -25 -15 -31 8 -3 12 -14
20 -26 20 -12 0 -30 9 -41 20 -12 12 -25 18 -30 15 -6 -3 -7 1 -4 9 7 18 -4
20 -25 7 -8 -5 -10 -14 -6 -21 5 -8 4 -11 -2 -7 -6 4 -13 -3 -16 -14 -5 -18
-11 -20 -33 -15 -30 8 -59 33 -44 38 6 2 -3 11 -20 21 -17 10 -30 15 -29 10 6
-36 -23 -46 -41 -14 -13 25 -13 34 0 26 6 -3 10 -1 10 4 0 6 -11 11 -24 11
-31 0 -44 39 -19 58 13 9 14 12 2 11 -8 0 -20 -3 -26 -6z m177 -173 c0 -5 -4
-10 -10 -10 -5 0 -10 5 -10 10 0 6 5 10 10 10 6 0 10 -4 10 -10z m286 -55 c10
-39 -2 -57 -33 -53 -35 4 -45 45 -17 65 27 20 43 16 50 -12z m29 -145 c-3 -5
-10 -10 -16 -10 -5 0 -9 5 -9 10 0 6 7 10 16 10 8 0 12 -4 9 -10z m-50 -20 c3
-5 1 -10 -4 -10 -6 0 -11 5 -11 10 0 6 2 10 4 10 3 0 8 -4 11 -10z m-205 -24
c0 -11 -19 -15 -25 -6 -3 5 1 10 9 10 9 0 16 -2 16 -4z m0 -66 c0 -5 -5 -10
-11 -10 -5 0 -7 5 -4 10 3 6 8 10 11 10 2 0 4 -4 4 -10z m40 -301 c0 -11 -4
-17 -10 -14 -5 3 -10 15 -10 26 0 11 5 17 10 14 6 -3 10 -15 10 -26z m96 -36
c-10 -10 -19 5 -10 18 6 11 8 11 12 0 2 -7 1 -15 -2 -18z m-398 -100 c-4 -22
-22 -20 -26 1 -2 10 3 16 13 16 10 0 15 -7 13 -17z"/>
<path d="M1587 3543 c-12 -11 -8 -23 8 -23 8 0 15 7 15 15 0 16 -12 20 -23 8z"/>
<path d="M4268 3726 c-66 -12 -115 -36 -73 -36 15 0 16 -3 7 -12 -18 -18 -15
-39 6 -36 12 2 18 -5 20 -24 3 -21 -1 -28 -14 -28 -16 0 -16 -1 1 -20 25 -28
44 -25 51 8 9 41 12 49 13 30 1 -10 6 -18 11 -18 6 0 10 -9 10 -21 0 -28 24
-19 28 11 2 14 -3 27 -12 32 -23 13 -20 25 9 30 l25 5 0 -146 c1 -111 3 -141
12 -127 6 11 10 57 8 110 -3 121 -3 124 0 174 3 32 -2 48 -16 61 -17 16 -26
17 -86 7z m77 -36 c0 -20 -27 -30 -44 -16 -11 8 -13 8 -7 -2 12 -20 -22 -26
-49 -8 -35 23 -31 34 13 39 62 7 87 3 87 -13z"/>
<path d="M652 3618 c-10 -14 -17 -98 -14 -185 2 -40 6 -53 17 -53 12 0 15 19
15 110 0 120 -4 114 65 111 29 -2 29 -1 11 14 -24 18 -80 20 -94 3z"/>
<path d="M3840 3603 c-8 -3 -18 -11 -22 -17 -9 -14 -31 -15 -41 -1 -5 6 -6 0
-4 -14 4 -15 -1 -31 -13 -43 l-19 -21 2 21 c0 11 5 18 9 16 4 -3 8 2 8 11 0 9
-4 13 -10 10 -5 -3 -10 3 -10 14 0 12 -5 21 -10 21 -16 0 -8 -192 8 -198 9 -3
11 8 7 42 -5 37 -3 46 10 46 8 0 14 -8 13 -17 -3 -37 3 -53 18 -53 11 0 15 6
11 20 -3 11 -1 22 4 25 5 4 13 20 18 38 l9 32 12 -34 13 -34 19 22 c13 16 18
19 18 8 0 -8 7 -18 16 -21 8 -3 12 -2 9 4 -3 5 3 18 15 30 25 25 25 36 1 50
-11 5 -23 19 -26 30 -6 20 -33 25 -65 13z m-43 -75 c-3 -8 -6 -5 -6 6 -1 11 2
17 5 13 3 -3 4 -12 1 -19z"/>
<path d="M3050 3559 c-19 -5 -51 -6 -71 -3 -35 5 -36 5 -31 -25 4 -30 22 -39
57 -31 6 1 16 3 22 3 9 0 10 4 2 14 -12 13 -6 17 24 14 9 -1 20 5 23 13 3 9
11 13 17 9 6 -3 7 -1 3 5 -4 7 -8 12 -9 11 -1 -1 -18 -5 -37 -10z"/>
<path d="M1042 3527 c-6 -6 -17 -31 -25 -55 l-15 -42 28 0 c21 0 35 -9 51 -31
21 -30 22 -35 9 -93 -7 -34 -13 -66 -13 -73 0 -7 -4 -10 -8 -7 -4 2 -9 -2 -12
-8 -2 -7 -8 -9 -13 -5 -5 4 -4 11 2 15 6 4 10 16 11 27 0 11 3 32 8 48 6 21 4
27 -9 27 -19 0 -22 30 -3 31 6 0 0 5 -15 11 -18 6 -28 17 -28 30 0 17 -2 18
-15 4 -8 -8 -15 -22 -15 -31 0 -9 -4 -13 -10 -10 -5 3 -7 0 -4 -8 3 -8 1 -18
-5 -22 -19 -11 7 -47 29 -40 22 7 43 -24 30 -44 -11 -18 -31 -5 -23 15 5 14 3
14 -15 3 -12 -8 -27 -27 -34 -44 -6 -16 -13 -33 -16 -37 -2 -4 8 -13 22 -19
14 -7 26 -16 26 -21 0 -11 -48 -10 -55 2 -9 15 -25 12 -25 -5 0 -8 -4 -15 -9
-15 -6 0 -9 -9 -8 -20 1 -20 17 -29 17 -10 0 6 12 10 28 10 20 0 23 -3 12 -10
-12 -8 -12 -10 3 -16 10 -4 23 -2 29 4 6 6 16 8 23 5 9 -3 12 2 9 14 -5 21 52
87 68 77 6 -4 6 -10 -1 -17 -16 -16 -14 -21 14 -51 19 -20 25 -23 25 -11 0 15
2 15 17 -1 16 -15 17 -15 24 2 7 18 8 18 8 1 2 -33 21 -7 21 27 0 30 -4 34
-30 38 -16 3 -34 0 -40 -6 -8 -8 -10 2 -8 34 2 36 7 46 23 49 28 5 35 20 24
49 -5 14 -8 25 -7 26 22 13 61 25 67 21 14 -8 44 33 38 54 -3 11 0 22 7 25 6
3 2 4 -10 1 -11 -3 -27 1 -36 7 -18 15 -40 76 -32 89 3 5 -9 7 -25 5 -17 -2
-32 2 -35 8 -2 6 -5 3 -5 -7 -1 -17 -3 -17 -23 -3 -27 19 -33 20 -46 3z m128
-157 c0 -5 -5 -10 -11 -10 -5 0 -7 5 -4 10 3 6 8 10 11 10 2 0 4 -4 4 -10z
m-13 -232 c-3 -8 -6 -5 -6 6 -1 11 2 17 5 13 3 -3 4 -12 1 -19z"/>
<path d="M1290 3478 c0 -31 3 -39 10 -28 13 20 13 57 0 65 -6 4 -10 -11 -10
-37z"/>
<path d="M3861 3434 c0 -11 3 -14 6 -6 3 7 2 16 -1 19 -3 4 -6 -2 -5 -13z"/>
<path d="M3900 3446 c0 -2 6 -17 13 -34 10 -25 15 -28 29 -18 12 9 13 15 4 27
-10 14 -46 33 -46 25z"/>
<path d="M3832 3403 c-10 -4 -10 -8 -1 -19 9 -11 9 -14 0 -14 -8 0 -10 -8 -6
-19 3 -11 0 -23 -6 -27 -9 -5 -10 -2 -6 9 3 10 2 17 -3 17 -14 0 -12 -44 3
-59 6 -7 8 -12 2 -11 -22 5 -36 -1 -30 -10 4 -7 21 -8 43 -4 58 12 106 11 114
0 5 -7 8 -4 8 6 0 11 5 15 15 12 8 -4 15 -2 15 4 0 5 -20 15 -44 21 -57 14
-56 14 -57 -6 0 -10 -5 -4 -10 12 -5 17 -8 45 -5 63 5 32 -2 37 -32 25z"/>
<path d="M3880 3380 c0 -11 6 -20 14 -20 9 0 12 7 9 20 -3 11 -9 20 -14 20 -5
0 -9 -9 -9 -20z"/>
<path d="M2177 3349 c-9 -6 -15 -14 -12 -19 8 -13 -6 -81 -15 -75 -4 3 -11
-11 -14 -30 -4 -19 -11 -35 -16 -35 -13 0 -13 41 0 77 9 26 9 27 -5 9 -8 -11
-15 -24 -15 -29 0 -5 -7 -7 -15 -3 -8 3 -15 2 -15 -3 0 -4 -7 -8 -15 -8 -8 0
-15 4 -15 9 0 4 5 8 12 8 6 0 9 2 6 5 -10 11 -39 -8 -34 -22 3 -8 1 -11 -4 -8
-16 10 -12 -21 5 -35 8 -7 22 -10 30 -6 10 4 15 -1 15 -14 0 -10 5 -22 10 -25
6 -4 8 -11 5 -16 -4 -5 -1 -17 4 -26 6 -10 11 -13 11 -8 1 6 6 1 11 -10 6 -14
8 -6 4 27 -5 42 -3 48 17 59 19 10 21 10 12 -2 -12 -15 -9 -54 6 -92 7 -17 9
-8 10 38 1 54 26 183 45 228 8 19 -1 21 -28 6z"/>
<path d="M2293 3333 c-25 -5 -83 -55 -83 -72 0 -6 8 -11 18 -11 27 0 34 -11
19 -28 -10 -13 -9 -15 6 -9 17 6 16 4 -2 -19 -12 -15 -21 -34 -21 -43 0 -9 8
-2 20 17 23 38 43 43 34 8 -6 -27 24 -66 51 -66 20 0 55 36 55 58 1 13 4 11
15 -8 11 -20 14 -21 15 -7 0 11 4 15 12 11 7 -5 9 0 6 14 -3 12 -2 22 4 24 6
2 5 14 -2 32 -6 16 -8 37 -5 47 4 11 3 28 0 39 -5 17 -14 20 -63 19 -31 -1
-67 -4 -79 -6z m42 -211 c-3 -3 -11 0 -18 7 -9 10 -8 11 6 5 10 -3 15 -9 12
-12z"/>
<path d="M2592 3328 c-16 -16 -15 -37 2 -44 12 -5 18 -64 5 -64 -8 0 -4 -58 4
-66 4 -4 7 -1 7 7 0 8 11 1 24 -16 22 -26 27 -29 45 -17 24 14 43 16 21 2 -8
-5 -10 -10 -4 -10 21 0 36 29 32 59 -6 38 19 30 39 -13 l14 -31 -6 30 c-3 17
-7 40 -8 52 0 12 -3 21 -6 20 -4 -1 -6 3 -6 8 0 6 12 9 28 7 50 -4 21 56 -39
78 -36 14 -138 12 -152 -2z m68 -142 c0 -3 -4 -8 -10 -11 -5 -3 -10 -1 -10 4
0 6 5 11 10 11 6 0 10 -2 10 -4z"/>
<path d="M3760 3325 c0 -8 5 -15 10 -15 6 0 10 7 10 15 0 8 -4 15 -10 15 -5 0
-10 -7 -10 -15z"/>
<path d="M3988 3313 c7 -3 16 -2 19 1 4 3 -2 6 -13 5 -11 0 -14 -3 -6 -6z"/>
<path d="M570 3281 c0 -11 4 -22 9 -25 12 -8 34 21 26 34 -11 17 -35 11 -35
-9z"/>
<path d="M1167 3273 c-2 -5 0 -21 4 -38 7 -29 7 -29 8 8 1 35 -3 46 -12 30z"/>
<path d="M3915 3240 c-3 -5 1 -10 10 -10 9 0 13 5 10 10 -3 6 -8 10 -10 10 -2
0 -7 -4 -10 -10z"/>
<path d="M1534 3232 c-6 -4 -13 -15 -17 -25 -4 -9 -18 -22 -32 -27 -28 -11
-29 -14 -15 -41 15 -27 64 -25 84 3 28 40 12 111 -20 90z"/>
<path d="M797 3163 c-4 -6 -3 -14 2 -18 6 -3 8 -12 5 -20 -8 -21 20 -29 48
-14 l23 13 -32 9 c-18 5 -33 17 -35 26 -3 11 -6 12 -11 4z"/>
<path d="M1195 3127 c-8 -19 -2 -31 13 -26 5 2 6 13 2 24 -7 19 -8 19 -15 2z"/>
<path d="M533 3037 c-21 -61 -24 -77 -15 -77 8 0 36 100 29 106 -2 2 -8 -11
-14 -29z"/>
<path d="M4249 3065 c-3 -2 -19 -5 -37 -7 -18 -1 -32 -8 -32 -15 0 -7 -9 -13
-20 -13 -11 0 -20 5 -20 11 0 5 -4 7 -10 4 -5 -3 -10 -1 -10 5 0 12 -162 6
-183 -7 -6 -3 -35 -6 -66 -6 -31 0 -51 -1 -44 -4 21 -8 73 -110 75 -146 1 -33
3 -34 39 -34 20 0 49 -7 63 -16 14 -10 26 -13 26 -7 0 5 5 10 12 10 6 0 8 -3
5 -7 -9 -8 61 -56 72 -49 5 3 8 -2 7 -12 0 -9 4 -16 10 -15 9 2 11 -21 8 -77
-3 -49 -1 -81 6 -85 6 -4 8 -16 5 -28 -5 -17 -4 -19 4 -7 9 12 11 9 12 -15 l1
-30 12 28 12 28 12 -39 c7 -22 12 -51 12 -66 0 -27 31 -66 53 -66 6 0 19 4 27
10 9 6 17 5 23 -3 5 -7 7 0 5 18 -2 20 1 29 10 27 19 -3 15 55 -4 66 -11 6
-14 14 -9 22 6 10 11 9 22 -5 11 -16 13 -16 13 -3 0 8 -6 21 -13 27 -8 6 -14
26 -14 43 0 18 2 25 4 16 7 -26 20 -22 31 10 7 21 6 38 -4 62 -8 19 -11 37 -6
42 5 5 7 20 4 34 -4 20 -9 23 -26 18 -11 -4 -24 -11 -27 -17 -8 -11 -29 -1
-29 14 0 5 10 9 23 9 21 1 82 29 62 30 -5 0 -11 12 -12 28 -4 55 -10 87 -20
107 -6 11 -11 22 -11 25 -2 21 -17 40 -33 40 -11 0 -19 7 -19 16 0 8 5 12 10
9 6 -3 10 -2 10 3 0 13 -32 26 -41 17z m-29 -55 c0 -5 -4 -10 -9 -10 -6 0 -13
5 -16 10 -3 6 1 10 9 10 9 0 16 -4 16 -10z m-125 -126 c-9 -9 -19 -13 -23 -10
-3 4 0 11 8 16 24 15 33 11 15 -6z m175 -4 c0 -5 -4 -10 -10 -10 -5 0 -10 5
-10 10 0 6 5 10 10 10 6 0 10 -4 10 -10z m-90 -55 c0 -8 -6 -15 -14 -15 -17 0
-28 14 -19 24 12 12 33 6 33 -9z m130 -101 c0 -8 -4 -14 -10 -14 -5 0 -10 9
-10 21 0 11 5 17 10 14 6 -3 10 -13 10 -21z m-50 6 c0 -5 -4 -10 -10 -10 -5 0
-10 5 -10 10 0 6 5 10 10 10 6 0 10 -4 10 -10z m60 -40 c0 -5 -2 -10 -4 -10
-3 0 -8 5 -11 10 -3 6 -1 10 4 10 6 0 11 -4 11 -10z m-80 -41 c0 -5 -7 -9 -15
-9 -15 0 -20 12 -9 23 8 8 24 -1 24 -14z m-36 -34 c-7 -16 -24 -21 -24 -6 0 8
7 13 27 20 1 1 0 -6 -3 -14z m56 -15 c0 -5 -4 -10 -10 -10 -5 0 -10 5 -10 10
0 6 5 10 10 10 6 0 10 -4 10 -10z m40 -70 c0 -5 -5 -10 -11 -10 -5 0 -7 5 -4
10 3 6 8 10 11 10 2 0 4 -4 4 -10z m37 -52 c-3 -8 -6 -5 -6 6 -1 11 2 17 5 13
3 -3 4 -12 1 -19z m-47 -16 c0 -13 -12 -22 -22 -16 -10 6 -1 24 13 24 5 0 9
-4 9 -8z"/>
<path d="M2020 3045 c-7 -9 -11 -17 -9 -20 3 -2 10 5 17 15 14 24 10 26 -8 5z"/>
<path d="M2040 3017 c0 -16 7 -30 15 -33 8 -4 15 -10 15 -16 0 -13 22 -32 40
-36 28 -6 59 -32 59 -49 1 -40 5 -52 18 -57 7 -3 13 -1 13 5 0 6 10 8 23 4 17
-5 19 -4 7 4 -8 6 -15 14 -15 18 -1 4 -9 24 -20 43 -11 19 -19 39 -20 43 0 5
-18 15 -40 23 -22 7 -52 28 -67 46 l-27 33 -1 -28z m135 -97 c3 -5 2 -10 -4
-10 -5 0 -13 5 -16 10 -3 6 -2 10 4 10 5 0 13 -4 16 -10z"/>
<path d="M3400 3031 c0 -9 -4 -10 -82 -15 -31 -2 -64 -8 -73 -14 -26 -14 -10
-49 25 -57 16 -3 34 -12 40 -20 6 -8 19 -11 28 -8 15 5 14 3 -2 -15 -11 -12
-27 -22 -38 -22 -10 0 -18 -7 -18 -17 0 -14 -2 -15 -9 -5 -6 10 -14 4 -29 -22
-36 -60 -110 -94 -141 -63 -10 10 -11 9 -6 -5 9 -22 61 -39 94 -31 65 16 146
90 136 124 -4 12 1 22 16 30 18 9 21 9 17 -2 -4 -11 8 -14 55 -14 l60 0 12 43
c7 23 25 58 39 76 30 39 22 46 -38 35 -22 -4 -50 -3 -63 2 -13 5 -23 5 -23 0z
m50 -86 c0 -8 -4 -15 -10 -15 -5 0 -7 7 -4 15 4 8 8 15 10 15 2 0 4 -7 4 -15z"/>
<path d="M2468 2994 c-39 -12 -7 -54 40 -54 23 0 70 35 60 45 -9 9 -79 15
-100 9z"/>
<path d="M938 2953 c7 -3 16 -2 19 1 4 3 -2 6 -13 5 -11 0 -14 -3 -6 -6z"/>
<path d="M507 2943 c-3 -5 -1 -17 4 -28 7 -17 8 -17 8 8 1 27 -4 34 -12 20z"/>
<path d="M993 2943 c9 -2 25 -2 35 0 9 3 1 5 -18 5 -19 0 -27 -2 -17 -5z"/>
<path d="M1080 2942 c0 -4 17 -8 38 -9 28 0 32 1 17 7 -26 11 -55 12 -55 2z"/>
<path d="M2347 2934 c-4 -4 15 -17 41 -30 64 -32 167 -33 229 -3 24 12 42 23
39 26 -2 3 -17 -4 -32 -14 -43 -28 -194 -24 -234 5 -32 24 -34 25 -43 16z"/>
<path d="M700 2910 c0 -6 -4 -9 -9 -5 -5 3 -12 -4 -16 -15 -3 -11 -10 -20 -15
-20 -5 0 -8 -9 -7 -19 1 -15 4 -17 14 -9 7 6 13 16 13 24 0 7 9 19 21 27 13 9
16 17 10 22 -6 3 -11 1 -11 -5z"/>
<path d="M492 2870 c0 -19 2 -27 5 -17 2 9 2 25 0 35 -3 9 -5 1 -5 -18z"/>
<path d="M1580 2883 c-27 -19 -59 -54 -60 -65 0 -4 16 8 35 26 43 42 97 54
149 32 40 -17 50 -6 11 12 -38 17 -107 15 -135 -5z"/>
<path d="M1760 2840 c6 -11 13 -20 16 -20 2 0 0 9 -6 20 -6 11 -13 20 -16 20
-2 0 0 -9 6 -20z"/>
<path d="M1680 2830 c8 -5 20 -10 25 -10 6 0 3 5 -5 10 -8 5 -19 10 -25 10 -5
0 -3 -5 5 -10z"/>
<path d="M2483 2833 c9 -2 25 -2 35 0 9 3 1 5 -18 5 -19 0 -27 -2 -17 -5z"/>
<path d="M2253 2807 c0 -15 45 -42 55 -33 3 3 -4 9 -14 13 -10 4 -24 13 -30
21 -9 13 -11 13 -11 -1z"/>
<path d="M2718 2785 c-17 -14 -23 -25 -15 -28 11 -3 53 40 46 48 -2 2 -16 -7
-31 -20z"/>
<path d="M1335 2758 c-33 -5 -72 -7 -87 -5 -15 2 -29 1 -30 -2 -4 -8 -131 -41
-157 -41 -12 0 -21 -6 -21 -15 0 -20 -32 -35 -58 -28 -30 7 -96 -42 -89 -67 3
-13 0 -17 -9 -13 -8 3 -14 0 -14 -7 0 -7 -6 -10 -14 -7 -8 3 -20 -2 -28 -11
-12 -15 -11 -16 5 -3 19 15 23 1 5 -18 -11 -10 -9 -11 6 -5 12 5 17 4 13 -3
-4 -6 10 -7 39 -3 40 6 49 4 71 -16 21 -19 24 -29 19 -57 -8 -42 6 -56 60 -62
22 -2 53 -8 69 -14 29 -11 29 -10 10 5 -20 16 -20 16 3 9 19 -5 22 -3 22 19 0
14 -4 26 -10 26 -5 0 -10 5 -10 10 0 6 6 10 14 10 8 0 17 7 20 16 4 11 12 14
24 9 41 -16 54 -13 94 28 23 23 36 34 29 25 -8 -10 -9 -18 -3 -18 11 0 40 32
32 36 -3 1 5 14 17 27 12 14 20 27 17 29 -2 3 10 17 26 33 34 32 38 45 14 45
-9 0 -14 6 -11 13 2 6 14 11 26 10 17 -2 21 3 21 27 0 34 -6 35 -115 18z
m-262 -124 c-4 -12 -8 -13 -14 -3 -9 15 -2 32 11 24 5 -3 6 -13 3 -21z m73 5
c10 -17 -13 -36 -27 -22 -12 12 -4 33 11 33 5 0 12 -5 16 -11z m82 -20 c-2 -6
-8 -10 -13 -10 -5 0 -11 4 -13 10 -2 6 4 11 13 11 9 0 15 -5 13 -11z m116 -5
c18 -7 12 -24 -10 -24 -8 0 -14 7 -14 15 0 17 2 18 24 9z m-264 -100 c0 -17
-22 -14 -28 4 -2 7 3 12 12 12 9 0 16 -7 16 -16z m-20 -89 c0 -8 -9 -15 -20
-15 -20 0 -26 11 -13 23 12 13 33 7 33 -8z"/>
<path d="M2550 2748 c-19 -5 -50 -7 -68 -5 -19 4 -30 2 -27 -4 4 -5 -2 -9 -12
-9 -14 -1 -13 -4 7 -15 l25 -15 -32 6 c-33 6 -33 6 -35 -37 -1 -24 -2 -52 -2
-61 1 -12 -3 -15 -11 -8 -14 12 -18 -26 -5 -51 8 -14 5 -19 -13 -25 -22 -7
-21 -7 6 -17 22 -7 27 -13 22 -30 -4 -12 -3 -17 2 -12 16 20 30 14 25 -11 -3
-19 -7 -22 -18 -13 -11 9 -14 9 -14 0 0 -7 -4 -9 -10 -6 -5 3 -10 1 -10 -4 0
-6 9 -11 20 -11 11 0 20 -4 20 -10 0 -5 -5 -10 -11 -10 -5 0 -8 -4 -5 -9 3 -5
-1 -12 -10 -15 -12 -4 -15 -2 -10 9 3 8 1 15 -4 15 -5 0 -9 -10 -8 -23 2 -18
9 -24 31 -25 17 -2 26 2 22 8 -3 6 0 7 10 4 10 -4 12 -10 7 -18 -14 -16 -11
-46 4 -46 7 0 17 -7 22 -16 6 -11 17 -15 32 -11 18 5 21 2 17 -15 -5 -19 -5
-19 14 -2 19 17 27 40 11 30 -5 -3 -9 1 -9 9 0 11 5 11 19 4 18 -10 56 -5 127
17 19 5 22 4 16 -6 -6 -10 -4 -12 7 -7 9 3 21 0 27 -6 6 -6 11 -8 11 -4 0 4
14 -7 32 -25 18 -18 35 -33 39 -33 4 0 11 -4 16 -9 5 -5 3 -6 -4 -2 -20 11
-15 -1 21 -52 26 -38 32 -52 24 -66 -8 -13 -7 -21 3 -27 12 -8 12 -10 0 -18
-8 -5 -11 -17 -6 -32 4 -15 3 -19 -3 -11 -7 10 -12 9 -24 -5 -27 -31 -35 -56
-37 -117 -2 -46 0 -57 11 -51 9 6 10 5 2 -4 -6 -7 -8 -31 -4 -63 4 -29 5 -60
3 -70 -7 -23 -32 -31 -50 -16 -13 10 -14 35 -8 150 6 121 5 139 -9 144 -8 3
-25 22 -37 41 -18 28 -20 44 -16 86 4 28 16 64 27 79 26 36 25 44 -7 56 -38
13 -83 14 -83 1 0 -5 -4 -7 -10 -4 -5 3 -10 1 -10 -4 0 -6 -3 -10 -7 -9 -15 4
-51 -26 -46 -38 2 -6 -1 -15 -8 -20 -8 -5 -10 -3 -4 7 4 8 -1 5 -12 -6 -11
-11 -18 -24 -15 -29 2 -4 7 -4 11 1 3 5 22 10 42 12 30 2 42 -3 63 -26 53 -56
47 -92 -27 -170 l-50 -53 26 -28 c29 -30 36 -62 14 -62 -7 0 -28 15 -46 34
l-32 33 -43 -44 c-34 -37 -44 -43 -53 -31 -9 11 -2 23 33 60 l45 47 -27 18
c-26 16 -44 23 -71 25 -7 1 -13 5 -13 10 0 5 -4 6 -10 3 -5 -3 -10 3 -10 14 0
11 -8 25 -19 30 -15 8 -24 5 -46 -15 -15 -14 -24 -28 -21 -31 3 -4 -4 -17 -16
-31 -16 -16 -18 -23 -8 -20 8 2 18 8 22 13 4 6 8 0 8 -12 0 -13 8 -24 20 -28
11 -3 20 -13 20 -20 0 -8 17 -27 38 -42 20 -15 40 -33 45 -40 4 -7 14 -10 22
-6 10 3 13 1 10 -9 -3 -8 7 -23 25 -37 39 -28 40 -27 165 92 96 92 122 106
111 60 -4 -16 -7 -33 -8 -40 -1 -7 -5 -10 -9 -7 -5 3 -49 -33 -100 -78 -125
-114 -124 -113 -149 -95 -11 8 -39 31 -61 51 -22 21 -46 35 -53 33 -8 -3 -13
1 -12 11 0 10 -5 16 -14 14 -8 -2 -12 0 -8 4 11 11 -12 34 -34 34 -12 0 -17 4
-12 12 5 7 3 8 -5 4 -7 -5 -10 -10 -7 -13 3 -3 1 -13 -4 -23 -5 -9 -10 -39
-11 -66 -2 -50 -3 -50 -38 -52 -31 -2 -36 1 -37 20 -6 115 -8 128 -21 128 -8
0 -12 4 -9 9 7 11 -17 21 -48 21 -23 0 -61 -36 -46 -45 5 -3 11 4 15 15 3 11
11 20 17 20 7 0 6 -5 -2 -15 -6 -8 -9 -18 -6 -24 4 -5 -2 -12 -11 -15 -10 -3
-6 -4 10 -2 31 4 37 -9 7 -17 -21 -5 -28 -37 -9 -37 6 0 9 -9 6 -20 -4 -15 2
-24 21 -35 24 -13 25 -14 5 -12 -12 1 -21 -2 -20 -8 1 -5 7 -9 13 -9 6 1 9 -7
7 -17 -3 -11 -9 -19 -12 -19 -4 0 -8 -7 -8 -15 0 -8 4 -15 7 -15 11 0 34 -59
27 -67 -4 -3 -2 -14 4 -24 6 -12 6 -19 0 -19 -8 0 -8 -21 -1 -40 1 -3 2 -9 1
-13 -1 -5 2 -6 7 -3 11 7 9 -55 -2 -73 -6 -9 -5 -12 2 -7 6 4 10 -1 10 -11 0
-10 1 -25 4 -33 3 -8 3 -12 1 -7 -8 13 -21 7 -26 -13 -4 -15 0 -20 16 -21 22
0 22 0 0 -9 -27 -11 -34 -60 -8 -52 5 2 6 0 2 -5 -5 -4 -14 -8 -19 -8 -6 0
-13 -5 -15 -12 -3 -7 4 -10 19 -7 l23 5 -24 -14 c-20 -12 -21 -15 -7 -20 9 -4
16 -12 16 -19 0 -10 -2 -10 -9 1 -7 10 -10 10 -16 1 -4 -7 -2 -16 5 -20 6 -4
11 -10 10 -14 -1 -4 1 -17 4 -29 5 -18 8 -20 16 -7 8 12 10 10 10 -9 0 -21 2
-22 17 -10 9 8 14 9 10 2 -4 -6 -1 -14 5 -17 7 -3 -6 -4 -29 -2 -26 2 -44 0
-47 -8 -3 -7 -5 -7 -5 2 -1 6 -5 12 -11 12 -5 0 -9 -11 -8 -24 1 -14 6 -22 11
-19 5 3 6 -4 2 -16 -4 -12 -2 -21 4 -21 6 0 11 -5 11 -11 0 -5 -3 -8 -7 -6
-10 6 -8 -68 2 -84 5 -8 4 -10 -3 -5 -17 10 -15 -10 3 -28 16 -15 16 -36 2
-47 -4 -3 4 -11 18 -19 28 -15 30 -22 15 -51 -7 -13 -7 -19 0 -19 5 0 10 -12
10 -26 0 -14 4 -23 9 -20 5 4 11 2 13 -4 2 -6 53 -13 113 -16 125 -8 135 -3
138 60 1 20 5 36 9 36 3 0 4 9 1 20 -3 12 0 20 7 20 9 0 9 4 2 13 -18 21 -7
49 24 62 53 22 141 -6 116 -38 -14 -18 -21 -57 -10 -57 5 0 6 -5 2 -11 -3 -6
0 -15 7 -20 12 -7 11 -9 -1 -9 -11 0 -12 -2 -3 -8 7 -4 14 -17 16 -27 1 -11 6
-26 10 -32 9 -14 78 -17 176 -7 48 6 59 10 50 20 -8 10 -6 13 10 11 11 0 18
-4 16 -7 -2 -4 2 -7 10 -7 8 0 12 4 9 8 -2 4 7 19 21 33 14 14 22 26 17 26 -4
0 -14 -6 -21 -12 -10 -11 -11 -10 -6 5 4 9 11 17 17 17 5 0 8 8 6 17 -1 10 1
24 6 32 6 10 5 12 -2 7 -8 -5 -12 4 -12 28 0 19 5 38 11 42 7 4 8 21 5 43 -5
26 -4 32 3 21 7 -9 11 -10 11 -3 0 6 -4 15 -10 18 -5 3 -10 21 -10 40 0 19 5
37 10 40 6 3 10 14 9 23 0 14 -2 13 -9 -3 -8 -19 -9 -19 -9 -1 -1 15 -4 17
-12 9 -14 -14 -46 -5 -53 14 -4 10 -2 13 8 10 10 -4 13 2 12 19 -1 29 -5 30
-22 7 -12 -16 -13 -16 -14 -2 0 13 -11 16 -62 15 l-63 -1 0 35 0 35 63 9 c42
6 62 13 62 23 0 11 4 11 22 2 19 -10 24 -8 41 12 16 20 17 24 4 27 -8 2 -18
10 -21 19 -6 14 -4 14 10 2 16 -13 16 -12 6 7 -10 19 -9 23 10 27 15 4 19 10
13 24 -4 10 -7 28 -6 41 0 12 -4 22 -9 22 -6 0 -10 7 -10 16 0 9 5 12 13 8 9
-6 9 -4 2 7 -12 16 -11 175 0 203 6 13 4 21 -3 24 -6 2 -8 10 -5 18 3 7 9 11
14 8 5 -3 9 1 9 10 0 8 -5 16 -11 18 -8 3 -6 9 4 20 12 11 13 18 4 27 -8 8 -8
11 2 11 7 0 11 6 8 14 -3 7 0 19 6 25 9 9 9 14 -2 20 -8 5 -11 16 -8 26 4 9 3
14 -3 10 -6 -3 -10 -13 -10 -21 0 -8 -7 -14 -15 -14 -9 0 -15 10 -15 26 0 19
4 25 15 21 8 -4 17 -2 21 4 3 5 15 7 27 4 12 -2 16 -2 9 1 -6 3 -10 9 -8 12 2
4 -13 7 -33 8 -48 1 -71 10 -71 28 0 10 15 17 45 22 25 3 42 10 39 15 -3 5 -1
9 5 9 5 0 11 -5 13 -11 6 -19 88 -20 166 -3 83 18 105 30 83 43 -11 7 -10 11
5 20 18 10 18 11 -2 17 -16 4 -19 12 -16 35 3 17 0 29 -7 29 -6 0 -11 11 -11
24 0 26 -30 86 -42 86 -5 0 -8 7 -8 15 0 8 -4 15 -10 15 -5 0 -7 8 -4 18 5 16
5 16 -6 0 -6 -10 -16 -18 -23 -18 -8 0 -8 3 2 9 8 5 9 11 3 15 -12 7 -37 -21
-47 -52 -3 -12 -11 -19 -17 -16 -6 4 -6 9 -1 13 6 3 12 16 15 27 4 15 1 21
-10 20 -9 0 -18 7 -20 18 -2 11 0 16 7 12 15 -10 13 3 -8 47 -9 20 -20 34 -24
30 -4 -3 -7 2 -7 12 0 10 -3 15 -6 12 -4 -4 -20 3 -35 14 l-29 20 6 -29 c5
-27 3 -29 -20 -29 -14 0 -23 3 -20 8 3 5 12 9 20 9 8 0 14 5 14 11 0 6 -7 8
-15 5 -11 -4 -15 0 -13 12 2 11 -5 18 -21 20 -13 2 -21 0 -18 -5 4 -6 0 -10
-8 -10 -8 0 -15 5 -15 11 0 6 -5 4 -10 -4 -7 -12 -11 -8 -16 18 -4 21 -10 29
-14 22 -4 -7 -13 -9 -19 -6 -6 4 -9 11 -6 16 3 4 -10 6 -27 4 -18 -3 -28 -1
-21 3 6 4 13 15 14 23 5 19 -21 80 -33 80 -5 0 -6 5 -3 10 3 6 1 10 -6 10 -7
0 -10 3 -6 6 3 3 -3 23 -14 42 -10 20 -19 52 -19 70 0 30 -2 33 -22 27 -22 -7
-22 -6 -4 7 10 8 16 20 12 26 -8 14 -9 14 -56 0z m-90 -317 c0 -5 -7 -12 -16
-15 -14 -5 -15 -4 -4 9 14 17 20 19 20 6z m305 -71 c3 -5 1 -10 -4 -10 -6 0
-11 5 -11 10 0 6 2 10 4 10 3 0 8 -4 11 -10z m165 -160 c0 -5 -4 -10 -10 -10
-5 0 -10 5 -10 10 0 6 5 10 10 10 6 0 10 -4 10 -10z m70 -2 c0 -4 -7 -8 -15
-8 -8 0 -15 -4 -15 -10 0 -5 -4 -10 -9 -10 -7 0 -8 21 -2 37 3 6 41 -3 41 -9z
m-14 -55 c-10 -10 -19 5 -10 18 6 11 8 11 12 0 2 -7 1 -15 -2 -18z m-291 -113
c3 -5 -1 -10 -10 -10 -9 0 -13 5 -10 10 3 6 8 10 10 10 2 0 7 -4 10 -10z
m-295 -480 c0 -5 -5 -10 -11 -10 -5 0 -7 5 -4 10 3 6 8 10 11 10 2 0 4 -4 4
-10z m280 -79 c0 -13 -26 -32 -33 -24 -8 7 11 33 24 33 5 0 9 -4 9 -9z m-525
-11 c-3 -5 -12 -10 -18 -10 -7 0 -6 4 3 10 19 12 23 12 15 0z m242 -22 c-3 -7
-5 -2 -5 12 0 14 2 19 5 13 2 -7 2 -19 0 -25z m493 -236 c0 -13 -12 -22 -22
-16 -10 6 -1 24 13 24 5 0 9 -4 9 -8z m-222 -59 c2 -8 -5 -13 -17 -13 -12 0
-21 6 -21 16 0 18 31 15 38 -3z m-294 -36 c-8 -4 -32 -9 -54 -10 -33 -1 -41
-6 -51 -28 -9 -23 -15 -26 -32 -20 -12 5 -27 6 -34 4 -8 -3 -10 5 -7 23 3 15
7 31 9 35 3 4 45 6 94 5 51 0 83 -4 75 -9z m178 -10 c7 -7 38 -14 68 -16 30
-1 57 -5 59 -7 10 -9 -9 -13 -72 -15 -57 -2 -71 1 -87 19 -11 12 -20 24 -20
27 0 10 39 5 52 -8z m248 -87 c0 -5 -5 -10 -11 -10 -5 0 -7 5 -4 10 3 6 8 10
11 10 2 0 4 -4 4 -10z m7 -326 c-3 -3 -12 -4 -19 -1 -8 3 -5 6 6 6 11 1 17 -2
13 -5z"/>
<path d="M3783 2705 c4 -5 -11 -17 -33 -27 -22 -10 -40 -20 -40 -23 0 -11 52
2 60 15 7 10 10 11 10 2 0 -10 4 -10 20 0 11 7 20 17 20 22 0 5 -3 6 -7 3 -3
-4 -13 -1 -22 5 -9 7 -13 8 -8 3z"/>
<path d="M4365 2590 c-3 -5 -1 -10 4 -10 6 0 11 5 11 10 0 6 -2 10 -4 10 -3 0
-8 -4 -11 -10z"/>
<path d="M3540 2515 c0 -14 3 -25 8 -25 4 0 7 11 7 25 0 14 -3 25 -7 25 -5 0
-8 -11 -8 -25z"/>
<path d="M1270 2455 c-7 -8 -19 -15 -26 -15 -8 0 -14 -5 -14 -12 0 -6 -8 -2
-18 9 -14 17 -19 18 -29 7 -9 -9 -9 -15 -2 -19 6 -4 3 -12 -8 -21 -16 -12 -15
-13 17 -15 19 -1 28 -3 18 -6 -16 -4 -34 -50 -23 -61 3 -3 5 0 5 6 0 7 6 12
14 12 8 0 17 8 19 18 4 13 5 12 6 -4 1 -20 18 -34 43 -34 6 0 8 7 4 15 -4 12
6 21 17 13 1 -1 12 4 25 11 27 14 29 35 3 28 -13 -3 -18 -1 -15 8 4 10 -3 11
-32 5 l-38 -9 29 23 c15 12 25 28 22 33 -4 6 -1 14 5 16 8 4 9 6 2 6 -6 1 -17
-6 -24 -14z m5 -85 c3 -6 -1 -7 -9 -4 -18 7 -21 14 -7 14 6 0 13 -4 16 -10z"/>
<path d="M1530 2426 c0 -23 50 -56 86 -56 42 0 54 17 12 18 -18 0 -41 11 -57
26 -31 29 -41 32 -41 12z"/>
<path d="M3505 2432 c3 -3 -2 -14 -12 -24 -21 -23 -12 -23 15 1 26 22 27 28 7
28 -8 0 -13 -3 -10 -5z"/>
<path d="M2336 2362 c-3 -5 1 -9 9 -9 8 0 12 4 9 9 -3 4 -7 8 -9 8 -2 0 -6 -4
-9 -8z"/>
<path d="M2396 2331 c-3 -5 1 -14 9 -21 13 -10 15 -9 15 9 0 21 -14 28 -24 12z"/>
<path d="M2052 2295 c-16 -35 -15 -55 3 -55 16 0 19 -9 9 -34 -3 -9 -12 -12
-22 -8 -14 5 -15 3 -4 -10 11 -13 8 -16 -15 -21 -35 -7 -37 -5 -58 40 -10 21
-20 32 -22 26 -3 -7 -11 -13 -18 -13 -7 0 -16 -13 -20 -30 -4 -16 -11 -30 -16
-30 -5 0 -9 -6 -9 -13 0 -7 -9 -29 -20 -50 -12 -22 -15 -37 -9 -37 6 0 8 -7 5
-16 -4 -10 1 -22 11 -30 14 -10 15 -15 6 -25 -9 -9 -16 -9 -25 -1 -11 9 -14 4
-15 -22 0 -30 2 -32 28 -31 15 1 26 -2 24 -5 -3 -4 24 -11 60 -15 51 -5 68 -3
80 8 16 17 20 32 6 23 -5 -3 -11 8 -13 26 -4 26 -3 28 7 15 9 -12 15 -13 23
-5 8 8 9 5 5 -12 -4 -15 -2 -21 4 -17 6 4 14 0 17 -9 9 -23 7 -31 -4 -14 -5 8
-12 11 -15 8 -11 -11 5 -28 25 -28 10 0 21 6 23 13 4 9 7 9 14 0 11 -15 76
-25 67 -11 -3 5 -12 7 -20 4 -18 -7 -18 11 0 21 8 4 14 13 14 18 -2 16 -25 35
-42 35 -8 0 -17 4 -20 9 -4 5 3 7 14 4 23 -6 27 9 6 26 -10 8 -16 9 -21 1 -3
-5 -11 -10 -18 -10 -6 0 -1 7 11 16 l23 16 -20 15 c-24 16 -45 8 -37 -13 3 -8
1 -14 -4 -14 -6 0 -10 4 -10 9 0 5 -13 14 -29 19 -25 9 -51 52 -31 52 12 0 40
-29 40 -41 0 -5 7 -9 16 -9 9 0 12 5 8 11 -5 8 3 10 25 7 31 -4 43 6 19 15
-10 4 -9 8 2 16 8 6 10 11 5 11 -6 0 -15 -4 -21 -10 -6 -6 -10 -3 -11 11 -1
14 3 19 13 15 8 -3 14 1 14 10 0 10 -6 14 -15 10 -8 -3 -15 -1 -15 4 0 6 14
10 31 10 24 0 30 4 25 16 -3 8 -2 12 4 9 6 -3 10 3 10 15 0 12 4 18 10 15 6
-3 7 1 3 10 -4 13 -8 14 -14 4 -10 -17 -18 -9 -21 22 -2 19 -8 25 -27 27 -14
1 -28 7 -31 12 -4 6 -12 -1 -18 -15z m65 -18 c4 -6 0 -8 -10 -4 -9 3 -19 2
-22 -4 -4 -5 -11 -7 -16 -4 -5 4 -9 1 -9 -6 0 -7 -3 -9 -6 -6 -4 4 -2 13 4 20
7 8 9 16 7 19 -3 3 6 3 20 0 14 -2 28 -9 32 -15z m-30 -66 c0 -11 -5 -18 -9
-15 -4 3 -5 11 -1 19 7 21 12 19 10 -4z m-67 -65 c0 -3 -4 -8 -10 -11 -5 -3
-10 -1 -10 4 0 6 5 11 10 11 6 0 10 -2 10 -4z m15 -116 c3 -5 -1 -10 -9 -10
-9 0 -16 5 -16 10 0 6 4 10 9 10 6 0 13 -4 16 -10z m-105 -45 c0 -8 -9 -15
-20 -15 -20 0 -26 11 -13 23 12 13 33 7 33 -8z"/>
<path d="M2317 2233 c-4 -3 1 -12 11 -20 15 -13 15 -13 -7 -7 -23 6 -23 5 -8
-16 8 -12 13 -29 10 -36 -7 -20 7 -17 24 4 8 9 12 11 8 5 -4 -8 0 -13 9 -13 9
0 16 3 16 8 0 4 20 7 44 7 24 0 43 -2 40 -4 -5 -5 28 -30 41 -30 6 0 2 4 -7
10 -10 5 -18 16 -18 24 0 13 -36 31 -53 27 -5 -1 -6 2 -2 8 3 5 1 10 -5 10 -6
0 -8 5 -4 12 5 8 2 9 -9 5 -10 -3 -17 -2 -17 3 0 12 -22 9 -32 -4 -4 -6 -12
-5 -21 2 -7 7 -17 9 -20 5z"/>
<path d="M2035 2220 c-3 -6 1 -7 9 -4 18 7 21 14 7 14 -6 0 -13 -4 -16 -10z"/>
<path d="M1610 2200 c-22 -13 -25 -177 -4 -198 8 -8 18 -12 21 -8 4 3 4 6 0 6
-3 0 5 11 19 25 17 17 23 32 19 45 -3 10 -8 42 -10 69 -4 69 -13 81 -45 61z"/>
<path d="M1986 2195 c7 -17 34 -21 34 -4 0 5 -4 7 -10 4 -5 -3 -10 -1 -10 4 0
6 -4 11 -10 11 -5 0 -7 -7 -4 -15z"/>
<path d="M1372 2188 c-16 -16 -15 -46 1 -63 6 -8 18 -21 25 -30 17 -20 27 -19
51 6 20 22 21 34 7 58 -7 10 -5 12 5 6 11 -6 12 -5 1 6 -7 7 -23 14 -35 14
-13 1 -28 4 -33 8 -6 3 -16 1 -22 -5z"/>
<path d="M4080 2191 c-17 -5 -21 -9 -12 -15 15 -9 52 1 52 15 0 10 -4 10 -40
0z"/>
<path d="M3581 2157 c-19 -21 -45 -86 -38 -94 5 -4 77 61 77 70 0 4 -7 7 -16
7 -9 0 -12 -5 -8 -12 5 -7 3 -8 -5 -4 -9 6 -8 13 5 27 25 28 11 33 -15 6z"/>
<path d="M816 2135 c-15 -8 -32 -12 -37 -9 -5 3 -9 0 -9 -5 0 -6 -7 -11 -15
-11 -8 0 -16 -8 -16 -17 -2 -25 1 -113 5 -143 2 -14 4 -31 5 -39 0 -7 7 -11
16 -8 8 4 17 2 20 -2 2 -5 -4 -11 -15 -14 -16 -4 -18 -9 -10 -36 13 -45 13
-46 26 -43 7 1 9 -7 6 -24 -5 -30 17 -54 51 -54 26 0 71 -36 55 -44 -22 -10
66 4 95 16 34 13 34 33 0 61 -94 78 -117 123 -74 147 30 15 35 14 104 -39 35
-27 86 -60 114 -74 28 -14 64 -37 81 -51 35 -31 40 -31 70 -7 27 24 27 40 -1
117 -18 51 -26 60 -44 59 -13 -1 -23 2 -23 7 0 5 -4 7 -9 4 -5 -4 -21 -2 -36
4 -24 9 -31 7 -51 -15 -14 -15 -21 -32 -17 -38 4 -8 1 -7 -9 1 -13 10 -22 11
-37 2 -19 -10 -25 -7 -22 13 1 7 -14 11 -35 8 -15 -2 -10 79 5 89 9 5 8 11 -4
23 -9 9 -14 21 -10 26 6 11 -28 33 -39 26 -3 -3 -2 0 3 6 15 19 -54 72 -83 65
-13 -3 -26 -2 -28 4 -2 6 -15 4 -32 -5z m4 -65 c0 -5 -2 -10 -4 -10 -3 0 -8 5
-11 10 -3 6 -1 10 4 10 6 0 11 -4 11 -10z m0 -130 c0 -5 -4 -10 -10 -10 -5 0
-10 5 -10 10 0 6 5 10 10 10 6 0 10 -4 10 -10z m47 -22 c-3 -8 -6 -5 -6 6 -1
11 2 17 5 13 3 -3 4 -12 1 -19z m325 -13 c0 -5 -5 -11 -11 -13 -6 -2 -11 4
-11 13 0 9 5 15 11 13 6 -2 11 -8 11 -13z m-402 -40 c0 -8 -4 -15 -10 -15 -5
0 -10 7 -10 15 0 8 5 15 10 15 6 0 10 -7 10 -15z m360 -15 c0 -21 -24 -28 -35
-10 -8 14 3 30 21 30 8 0 14 -9 14 -20z m-290 0 c0 -5 -4 -10 -10 -10 -5 0
-10 5 -10 10 0 6 5 10 10 10 6 0 10 -4 10 -10z"/>
<path d="M3449 2136 c10 -11 8 -16 -5 -24 -25 -14 -4 -38 41 -46 19 -4 39 -14
45 -24 9 -14 10 -13 5 8 -14 58 -28 79 -57 89 -40 14 -43 14 -29 -3z"/>
<path d="M2388 2113 c-7 -8 -13 -24 -15 -36 -3 -19 -2 -19 15 -4 16 15 21 15
39 2 11 -8 23 -11 27 -8 3 3 6 1 6 -5 0 -6 7 -9 16 -5 14 5 15 3 7 -12 -13
-22 5 -85 23 -85 7 0 16 -5 20 -12 5 -7 3 -8 -6 -3 -9 5 -11 4 -6 -4 8 -12 63
30 99 75 34 43 14 107 -31 102 -15 -2 -29 -5 -32 -8 -3 -3 -16 -11 -29 -18
-20 -12 -26 -11 -45 6 -28 26 -73 33 -88 15z"/>
<path d="M3732 2050 c15 -9 15 -13 2 -40 l-15 -29 -20 20 c-15 15 -24 18 -32
10 -7 -7 -2 -18 17 -38 l27 -27 -23 -19 c-13 -10 -16 -16 -8 -12 8 4 4 -2 -9
-13 -16 -13 -22 -25 -17 -37 3 -10 2 -23 -4 -30 -11 -14 -3 -45 12 -45 5 0 7
4 4 9 -3 4 1 16 8 27 8 10 13 23 12 29 -2 5 -1 7 1 4 2 -3 15 -4 28 -1 33 6
55 -14 55 -48 0 -23 4 -27 19 -23 12 3 17 11 14 19 -3 8 0 14 6 14 6 0 11 -4
11 -10 0 -5 7 -10 16 -10 11 0 14 6 9 20 -4 12 -2 20 5 20 6 0 8 -4 5 -10 -9
-14 21 -12 37 3 7 6 28 24 46 40 19 15 30 27 25 27 -4 0 -1 5 7 11 12 8 10 9
-9 4 -15 -5 -21 -3 -17 3 3 6 -13 17 -36 25 -29 9 -43 20 -42 31 1 10 -6 16
-17 16 -10 0 -19 5 -19 11 0 7 -11 8 -31 4 -29 -7 -31 -5 -26 14 4 17 0 24
-19 32 -32 12 -44 11 -22 -1z m41 -76 c-8 -21 -23 -17 -23 6 0 13 5 18 14 14
8 -3 12 -12 9 -20z m-6 -39 c0 -8 -4 -12 -9 -9 -4 3 -8 9 -8 15 0 5 4 9 8 9 5
0 9 -7 9 -15z m63 -30 c0 -8 -7 -15 -15 -15 -8 0 -15 7 -15 15 0 8 7 15 15 15
8 0 15 -7 15 -15z"/>
<path d="M3715 2030 c4 -6 11 -8 16 -5 14 9 11 15 -7 15 -8 0 -12 -5 -9 -10z"/>
<path d="M3541 2004 c0 -11 3 -14 6 -6 3 7 2 16 -1 19 -3 4 -6 -2 -5 -13z"/>
<path d="M4116 1943 c-3 -4 -22 -9 -46 -12 -3 -1 -4 -20 -2 -43 3 -33 -2 -48
-17 -65 -12 -12 -21 -25 -21 -28 0 -9 39 -5 45 5 3 5 26 7 51 4 58 -7 107 25
72 47 -10 7 -9 9 5 9 23 0 17 24 -8 31 -11 3 -19 13 -19 22 1 9 -2 14 -7 11
-5 -3 -12 1 -15 9 -4 13 -29 19 -38 10z m41 -48 c0 -8 -4 -15 -9 -15 -4 0 -8
7 -8 15 0 8 4 15 8 15 5 0 9 -7 9 -15z"/>
<path d="M3122 1900 c-56 -9 -105 -20 -109 -24 -4 -3 3 -20 15 -36 12 -16 22
-33 22 -37 0 -5 10 -19 23 -33 12 -14 33 -42 46 -62 12 -21 27 -38 32 -38 4 0
6 -7 2 -16 -4 -10 1 -17 16 -21 11 -3 18 -9 15 -14 -3 -5 1 -15 8 -22 15 -13
51 -19 43 -7 -3 5 -1 11 5 15 6 3 13 -1 16 -10 6 -14 8 -14 21 2 11 14 13 14
10 3 -4 -15 3 -18 50 -22 7 -1 12 -4 11 -7 0 -3 0 -15 1 -25 1 -18 2 -18 20
-2 12 11 25 15 33 10 27 -17 36 -13 24 11 -7 16 -13 20 -18 12 -6 -9 -8 -9 -8
0 0 19 20 26 26 9 8 -21 24 -20 25 2 0 14 2 14 9 -3 8 -19 9 -19 9 3 1 19 -3
22 -21 17 -17 -6 -20 -4 -15 9 7 19 -9 22 -17 4 -5 -10 -7 -10 -12 0 -5 10
-11 9 -27 -5 -11 -10 -18 -13 -15 -8 3 6 1 15 -6 21 -12 11 -28 11 -61 -2 -17
-6 -18 -5 -8 7 6 8 12 17 12 22 1 4 1 8 2 10 0 1 2 16 4 32 2 17 7 41 10 53 4
15 2 21 -5 17 -5 -3 -10 1 -10 9 0 8 -6 13 -12 11 -9 -4 -14 6 -15 27 -1 17
-8 35 -15 39 -7 4 -12 20 -13 35 0 15 -4 28 -10 29 -5 1 -56 -5 -113 -15z
m203 -301 c-4 -5 -12 -9 -18 -8 -9 0 -8 2 1 6 6 2 9 10 6 15 -4 7 -2 8 5 4 6
-4 9 -12 6 -17z"/>
<path d="M1771 1883 c3 -21 -3 -35 -31 -63 -16 -16 -24 -30 -17 -30 7 0 -1
-10 -16 -23 -28 -22 -28 -22 -9 -43 11 -11 23 -31 26 -45 5 -16 4 -20 -2 -11
-7 11 -10 9 -14 -6 -5 -16 -2 -20 14 -17 10 2 28 -5 40 -17 15 -15 22 -17 28
-8 4 7 12 10 17 7 11 -7 73 85 73 109 0 10 3 15 6 12 7 -8 44 28 44 42 0 6 5
10 10 10 6 0 9 3 8 8 -1 4 5 21 14 38 l17 31 -67 7 c-90 8 -142 8 -141 -1z
m-61 -133 c0 -5 -5 -10 -11 -10 -5 0 -7 5 -4 10 3 6 8 10 11 10 2 0 4 -4 4
-10z"/>
<path d="M4090 1699 c-22 -6 -20 -7 13 -8 38 -1 47 3 25 11 -7 3 -24 1 -38 -3z"/>
<path d="M1656 1621 c-4 -6 -21 -9 -38 -7 -56 7 -83 -48 -28 -56 20 -3 30 0
30 9 0 7 5 13 10 13 6 0 10 -4 10 -9 0 -6 9 -9 20 -8 19 1 25 10 21 31 -1 5 5
6 13 3 8 -3 17 1 20 9 8 21 8 24 -5 24 -5 0 -7 -4 -4 -10 8 -14 -18 -13 -32 1
-8 8 -13 8 -17 0z m-36 -36 c-12 -15 -30 -12 -30 6 0 5 10 9 21 9 18 0 19 -2
9 -15z"/>
<path d="M1361 1583 c1 -21 -4 -51 -10 -67 -14 -35 -7 -46 11 -17 7 12 18 21
25 21 6 0 14 6 16 13 4 10 6 10 6 0 1 -7 8 -13 16 -13 9 0 12 -6 8 -17 -5 -14
-3 -13 14 3 11 10 18 22 16 27 -2 4 0 7 4 7 5 0 9 11 9 24 0 14 -4 22 -9 19
-5 -3 -13 1 -18 8 -6 10 -9 11 -9 2 0 -8 -13 -13 -32 -13 -20 0 -28 3 -21 8 9
6 7 11 -7 20 -18 11 -20 9 -19 -25z m69 -29 c0 -2 -7 -4 -15 -4 -8 0 -15 4
-15 10 0 5 7 7 15 4 8 -4 15 -8 15 -10z"/>
<path d="M3611 1601 c-6 -10 -8 -21 -5 -23 2 -3 0 -18 -6 -33 -9 -24 -9 -26 4
-16 8 6 16 30 18 51 4 45 3 48 -11 21z"/>
<path d="M940 1564 c0 -14 33 -74 41 -74 18 0 19 21 2 44 -17 24 -43 42 -43
30z"/>
<path d="M1503 1558 c-3 -7 -1 -8 5 -4 7 4 12 3 12 -3 0 -5 -6 -12 -12 -14
-10 -4 -10 -6 0 -6 7 -1 15 6 18 14 4 8 11 12 18 8 6 -3 7 -2 3 2 -12 13 -36
15 -44 3z"/>
<path d="M4050 1560 c0 -4 -11 -19 -26 -35 -14 -15 -22 -30 -18 -34 4 -3 9 0
11 7 3 6 8 10 12 8 3 -2 16 10 28 28 16 25 18 33 7 33 -8 0 -14 -3 -14 -7z"/>
<path d="M902 1552 c-9 -6 -6 -14 13 -32 18 -17 25 -19 25 -9 0 24 -24 50 -38
41z"/>
<path d="M4076 1533 c-6 -14 -5 -15 5 -6 7 7 10 15 7 18 -3 3 -9 -2 -12 -12z"/>
<path d="M3915 1493 c-3 -15 -12 -31 -18 -35 -9 -6 -9 -8 0 -8 12 0 53 47 53
61 0 22 -29 6 -35 -18z"/>
<path d="M1036 1481 c-3 -5 1 -11 9 -15 8 -3 15 -1 15 4 0 13 -18 22 -24 11z"/>
<path d="M1070 1486 c0 -2 8 -10 18 -17 15 -13 16 -12 3 4 -13 16 -21 21 -21
13z"/>
<path d="M3946 1474 c-5 -12 -2 -15 10 -10 8 3 18 6 20 6 3 0 2 5 -1 10 -9 15
-22 12 -29 -6z"/>
<path d="M1208 1441 c-35 -14 -57 -17 -82 -11 -24 5 -36 4 -39 -4 -3 -7 -15
-6 -37 7 -39 21 -76 22 -84 1 -9 -22 -8 -24 10 -24 8 0 12 -4 9 -10 -3 -5 0
-7 8 -4 15 5 31 -21 22 -37 -3 -4 14 -22 37 -39 24 -17 53 -40 66 -51 17 -17
25 -19 36 -9 8 6 30 12 48 12 18 1 43 9 56 19 13 10 37 21 55 24 18 4 38 12
45 17 9 8 12 6 12 -7 0 -10 7 -27 17 -37 9 -10 21 -28 27 -40 8 -15 25 -25 54
-31 34 -7 48 -16 63 -42 37 -62 107 -54 191 23 21 20 33 23 60 18 27 -5 120
-9 152 -7 4 1 6 8 2 16 -3 8 -2 15 3 15 16 0 34 60 28 94 -3 18 -1 38 5 44 17
17 -1 52 -27 52 -13 0 -26 4 -29 9 -10 15 -230 -3 -253 -21 -7 -5 -14 -5 -18
2 -8 13 -158 13 -172 -1 -8 -8 -13 -8 -17 0 -8 12 -72 15 -79 4 -2 -5 -2 -2
-1 5 2 7 -8 12 -26 12 -17 0 -30 -4 -30 -10 0 -5 -5 -10 -11 -10 -6 0 -9 6 -6
14 4 9 -3 16 -16 20 -28 7 -24 8 -79 -13z m62 -11 c0 -5 -4 -10 -9 -10 -6 0
-13 5 -16 10 -3 6 1 10 9 10 9 0 16 -4 16 -10z m-179 -33 c-1 -12 -15 -9 -19
4 -3 6 1 10 8 8 6 -3 11 -8 11 -12z m568 -56 c13 -24 -8 -55 -34 -50 -23 5
-40 32 -32 53 9 22 54 20 66 -3z m146 -89 c-8 -8 -25 10 -19 20 4 6 9 5 15 -3
4 -7 6 -15 4 -17z"/>
<path d="M1620 1330 c0 -5 5 -10 10 -10 6 0 10 5 10 10 0 6 -4 10 -10 10 -5 0
-10 -4 -10 -10z"/>
<path d="M3115 1454 c-5 -2 -28 -5 -49 -6 -29 -3 -40 -9 -43 -23 -7 -37 -4
-85 8 -108 7 -12 12 -23 11 -24 -1 -2 -2 -10 -2 -19 0 -14 3 -14 15 -4 12 10
15 9 15 -7 0 -16 5 -19 25 -15 14 2 25 8 25 12 0 10 47 30 70 30 21 0 40 28
40 58 0 25 31 38 45 19 11 -15 29 -12 56 11 16 14 16 47 -1 37 -5 -3 -15 1
-23 9 -13 13 -58 21 -100 17 -16 -1 -16 -3 -2 -25 21 -31 10 -58 -23 -54 -34
4 -51 32 -34 58 6 11 12 22 12 24 0 6 -33 13 -45 10z m-25 -104 c0 -5 -2 -10
-4 -10 -3 0 -8 5 -11 10 -3 6 -1 10 4 10 6 0 11 -4 11 -10z m70 -40 c0 -5 -2
-10 -4 -10 -3 0 -8 5 -11 10 -3 6 -1 10 4 10 6 0 11 -4 11 -10z"/>
<path d="M3690 1445 c-7 -8 -9 -15 -6 -15 4 0 2 -9 -4 -20 -14 -26 -30 -17
-23 11 5 19 3 20 -18 14 -13 -4 -35 -17 -49 -30 -14 -12 -47 -37 -73 -54 l-48
-33 22 -19 c26 -22 24 -26 -16 -31 -17 -2 -32 -5 -35 -8 -3 -3 -17 -13 -32
-23 -16 -10 -27 -21 -27 -25 6 -35 -4 -51 -35 -62 -43 -14 -86 -47 -86 -65 0
-8 9 -17 20 -20 24 -8 27 -40 4 -49 -9 -3 -30 -6 -49 -6 -41 0 -62 -22 -40
-40 12 -10 24 -11 55 -1 21 6 60 11 87 10 27 -1 65 4 86 12 33 12 41 11 66 -4
36 -21 75 -22 95 -1 18 17 21 44 6 44 -5 0 -10 5 -10 10 0 10 21 21 62 34 11
3 15 12 11 27 -5 17 -8 18 -14 7 -12 -22 -68 -20 -97 2 -18 15 -29 17 -42 10
-24 -13 -30 -13 -30 0 0 6 6 10 13 10 7 0 23 13 35 30 13 16 34 37 48 47 27
18 101 25 110 11 3 -4 18 -1 33 7 16 8 31 12 33 9 3 -2 11 2 18 11 7 8 25 15
41 15 15 0 31 5 34 10 3 6 15 10 25 10 11 0 36 16 56 35 20 19 39 33 44 30 4
-3 6 4 3 14 -3 13 1 20 13 23 21 4 28 65 8 65 -7 0 -10 -7 -6 -15 3 -10 0 -13
-9 -10 -8 3 -13 11 -11 18 2 8 -6 9 -30 3 -47 -11 -200 -4 -192 9 9 15 -34 8
-46 -7z m140 -85 c0 -5 -5 -10 -11 -10 -5 0 -7 5 -4 10 3 6 8 10 11 10 2 0 4
-4 4 -10z m-290 -295 c0 -17 -39 -34 -84 -37 -51 -4 -59 17 -14 37 39 16 98
17 98 0z"/>
<path d="M3170 1401 c0 -6 5 -13 10 -16 6 -3 10 1 10 9 0 9 -4 16 -10 16 -5 0
-10 -4 -10 -9z"/>
<path d="M3520 1400 c-9 -6 -10 -10 -3 -10 6 0 15 5 18 10 8 12 4 12 -15 0z"/>
<path d="M3215 1150 c-3 -5 -2 -10 4 -10 5 0 13 5 16 10 3 6 2 10 -4 10 -5 0
-13 -4 -16 -10z"/>
<path d="M1778 1122 c-47 -3 -48 -4 -48 -36 0 -56 42 -73 52 -21 4 26 35 31
58 10 19 -18 44 -11 68 18 18 21 -7 38 -49 35 -19 -2 -55 -4 -81 -6z"/>
<path d="M1855 990 c-3 -6 0 -12 7 -14 7 -2 29 -8 49 -15 49 -15 59 -14 59 8
0 11 -9 21 -22 25 -36 9 -86 7 -93 -4z"/>
<path d="M3035 906 c3 -41 1 -56 -8 -56 -8 0 -7 -4 3 -10 13 -8 13 -11 1 -19
-22 -14 -3 -31 37 -31 48 0 60 9 72 51 15 52 12 67 -12 71 -15 2 -23 10 -23
23 0 16 -8 21 -38 23 l-38 3 6 -55z"/>
<path d="M2920 931 c0 -25 6 -27 13 -6 4 8 2 17 -3 20 -6 4 -10 -3 -10 -14z"/>
<path d="M1600 891 c0 -5 9 -12 19 -16 19 -6 38 -35 23 -35 -4 0 -19 7 -32 16
-15 9 -10 3 10 -16 26 -24 41 -30 61 -26 18 3 33 -1 47 -15 14 -13 35 -19 64
-19 55 0 118 18 118 33 0 7 3 23 7 36 l6 24 -95 -5 c-54 -3 -103 -1 -113 5
-12 6 -20 6 -25 -3 -5 -8 -11 -7 -23 4 -8 9 -23 13 -31 10 -9 -3 -16 -1 -16 5
0 6 -4 11 -10 11 -5 0 -10 -4 -10 -9z"/>
<path d="M1122 805 c-15 -32 -15 -57 -1 -32 6 9 14 15 19 12 4 -3 6 4 3 15 -4
16 -2 19 12 13 13 -4 16 -3 11 5 -12 20 -32 14 -44 -13z"/>
<path d="M3245 821 c-8 -14 10 -22 30 -15 13 5 14 8 3 15 -17 11 -26 11 -33 0z"/>
<path d="M1166 775 c-23 -23 -15 -40 17 -40 15 1 27 -5 27 -11 0 -16 31 -27
43 -15 15 15 3 46 -17 44 -11 -1 -27 8 -36 19 -15 19 -17 20 -34 3z m26 -20
c0 -5 -5 -11 -11 -13 -6 -2 -11 4 -11 13 0 9 5 15 11 13 6 -2 11 -8 11 -13z
m53 -35 c-5 -8 -11 -8 -17 -2 -6 6 -7 16 -3 22 5 8 11 8 17 2 6 -6 7 -16 3
-22z"/>
<path d="M2477 774 c-4 -4 -7 -16 -7 -26 0 -13 8 -18 31 -18 26 0 30 3 27 23
-3 22 -36 36 -51 21z"/>
<path d="M1320 742 c0 -7 -11 -12 -24 -12 -39 0 -43 -39 -4 -53 13 -4 20 3 28
29 7 20 9 38 6 41 -3 4 -6 1 -6 -5z m-16 -37 c-4 -8 -10 -15 -15 -15 -5 0 -9
7 -9 15 0 8 7 15 15 15 9 0 12 -6 9 -15z"/>
<path d="M3758 740 c12 -5 22 -15 22 -21 0 -7 3 -9 6 -6 10 10 -16 37 -35 36
-11 0 -9 -3 7 -9z"/>
<path d="M3706 725 c4 -8 8 -15 10 -15 2 0 4 7 4 15 0 8 -4 15 -10 15 -5 0 -7
-7 -4 -15z"/>
<path d="M1331 698 c-9 -24 -8 -34 1 -40 20 -12 33 -9 20 4 -18 18 -15 31 6
23 14 -5 15 -4 5 6 -18 18 -16 32 3 25 8 -3 12 -2 9 4 -12 20 -33 9 -44 -22z"/>
<path d="M2125 710 c3 -5 8 -10 11 -10 2 0 4 5 4 10 0 6 -5 10 -11 10 -5 0 -7
-4 -4 -10z"/>
<path d="M3663 704 c-3 -8 -2 -19 3 -24 5 -5 9 1 9 16 0 28 -3 30 -12 8z"/>
<path d="M2470 661 c0 -32 4 -41 23 -47 46 -16 48 -15 45 34 -3 45 -4 47 -35
50 -32 3 -33 2 -33 -37z"/>
<path d="M3616 691 c-10 -15 5 -41 23 -41 13 0 13 2 2 9 -9 6 -10 11 -2 15 6
4 11 12 11 19 0 6 -7 2 -16 -9 -13 -16 -15 -16 -10 -1 6 18 1 23 -8 8z"/>
<path d="M1377 668 c-4 -12 -4 -24 -1 -27 3 -3 7 5 11 17 8 32 26 27 19 -5
l-7 -28 22 25 21 25 -5 -30 c-5 -28 -4 -29 9 -10 13 18 13 22 -7 38 -29 23
-55 22 -62 -5z"/>
<path d="M3564 666 c-3 -8 -1 -23 5 -33 9 -15 10 -13 5 10 -7 31 9 37 26 10
11 -17 11 -17 6 0 -3 10 -6 21 -6 23 0 11 -31 2 -36 -10z"/>
<path d="M1464 646 c-9 -24 4 -48 23 -44 12 2 18 12 18 28 0 29 -32 41 -41 16z
m31 -26 c-5 -8 -11 -8 -17 -2 -6 6 -7 16 -3 22 5 8 11 8 17 2 6 -6 7 -16 3
-22z"/>
<path d="M1531 637 c-14 -36 -14 -57 0 -57 5 0 7 4 4 10 -3 5 -1 19 5 30 6 12
9 26 7 33 -3 7 -10 -1 -16 -16z"/>
<path d="M3505 650 c-4 -6 -4 -14 -1 -17 3 -4 6 -1 6 5 0 19 28 14 34 -5 4
-14 4 -14 3 2 -2 22 -31 32 -42 15z"/>
<path d="M3450 636 c0 -2 9 -6 20 -9 11 -3 18 -1 14 4 -5 9 -34 13 -34 5z"/>
<path d="M1556 604 c-4 -14 -5 -28 -3 -31 3 -2 8 8 11 23 4 14 5 28 3 31 -3 2
-8 -8 -11 -23z"/>
<path d="M1576 605 c-7 -20 3 -45 19 -45 19 0 36 25 29 44 -8 20 -40 21 -48 1z
m34 -15 c0 -19 -11 -26 -23 -14 -8 8 3 34 14 34 5 0 9 -9 9 -20z"/>
<path d="M1637 578 c-4 -12 -4 -24 -1 -27 3 -3 7 5 11 17 8 30 21 28 26 -5 4
-26 4 -26 6 5 1 25 -3 32 -18 32 -11 0 -21 -9 -24 -22z"/>
<path d="M3333 594 c9 -3 15 -10 12 -15 -4 -5 -1 -9 5 -9 19 0 5 25 -16 27
-16 2 -16 1 -1 -3z"/>
<path d="M3460 586 c7 -7 13 -7 20 0 6 6 3 10 -10 10 -13 0 -16 -4 -10 -10z"/>
<path d="M1705 580 c-4 -6 -1 -17 5 -25 10 -12 9 -15 -5 -15 -10 0 -16 -3 -12
-6 3 -4 14 -4 23 0 13 5 14 9 5 20 -9 11 -9 15 1 18 9 3 9 6 1 11 -7 4 -15 3
-18 -3z"/>
<path d="M3274 578 c-4 -6 0 -16 9 -23 9 -7 14 -15 10 -18 -3 -4 -1 -7 5 -7 7
0 12 7 12 16 0 14 3 14 15 4 23 -19 25 -8 4 14 -11 11 -19 14 -19 8 0 -7 -7
-12 -16 -12 -10 0 -14 6 -10 15 6 18 0 20 -10 3z"/>
<path d="M1808 573 c7 -3 16 -2 19 1 4 3 -2 6 -13 5 -11 0 -14 -3 -6 -6z"/>
<path d="M3176 546 c4 -29 2 -37 -8 -33 -7 2 -12 12 -11 22 1 12 -2 14 -10 6
-8 -8 -7 -16 6 -28 26 -27 43 -4 29 39 l-12 33 6 -39z"/>
<path d="M1792 535 c0 -16 2 -22 5 -12 2 9 2 23 0 30 -3 6 -5 -1 -5 -18z"/>
<path d="M3214 538 c-4 -6 -3 -8 4 -4 5 3 13 0 15 -6 3 -8 6 -6 6 5 1 19 -14
23 -25 5z"/>
<path d="M1832 524 c-7 -8 -8 -14 -3 -14 10 0 25 19 20 25 -2 1 -10 -3 -17
-11z"/>
<path d="M1896 527 c3 -10 9 -15 12 -12 3 3 0 11 -7 18 -10 9 -11 8 -5 -6z"/>
<path d="M3074 532 c-6 -4 -7 -17 -3 -32 l7 -25 1 28 c1 27 15 36 24 17 3 -6
4 -5 3 2 -3 15 -18 20 -32 10z"/>
<path d="M1922 510 c0 -14 2 -19 5 -12 2 6 2 18 0 25 -3 6 -5 1 -5 -13z"/>
<path d="M2010 501 c0 -11 -8 -22 -17 -24 -14 -4 -12 -5 5 -6 17 -1 22 4 22
24 0 14 -2 25 -5 25 -3 0 -5 -9 -5 -19z"/>
<path d="M1867 499 c7 -7 15 -10 18 -7 3 3 -2 9 -12 12 -14 6 -15 5 -6 -5z"/>
<path d="M2250 475 c0 -19 4 -35 10 -35 5 0 7 6 4 14 -3 8 2 16 13 19 17 4 17
5 -1 6 -12 1 -16 6 -12 16 3 8 1 15 -4 15 -6 0 -10 -16 -10 -35z"/>
<path d="M2822 480 c0 -19 2 -27 5 -17 2 9 2 25 0 35 -3 9 -5 1 -5 -18z"/>
<path d="M2868 485 c2 -15 0 -25 -7 -25 -7 0 -9 5 -5 12 4 7 3 8 -4 4 -19 -11
-14 -26 8 -26 15 0 20 7 20 24 0 14 -4 27 -9 30 -4 3 -6 -6 -3 -19z"/>
<path d="M2980 496 c0 -8 4 -17 9 -20 5 -4 7 3 4 14 -6 23 -13 26 -13 6z"/>
<path d="M2033 486 c1 -11 9 -21 17 -23 10 -3 11 -2 4 4 -6 4 -14 15 -17 23
-5 11 -6 9 -4 -4z"/>
<path d="M2112 480 c0 -14 2 -19 5 -12 2 6 2 18 0 25 -3 6 -5 1 -5 -13z"/>
<path d="M2311 463 c1 -23 2 -24 6 -5 6 30 21 28 26 -3 4 -23 4 -23 3 2 -1 18
-7 29 -18 31 -14 3 -18 -3 -17 -25z"/>
<path d="M2368 463 c5 -21 7 -23 10 -9 2 10 0 22 -6 28 -6 6 -7 0 -4 -19z"/>
<path d="M2421 473 c7 -12 15 -20 18 -17 3 2 -3 12 -13 22 -17 16 -18 16 -5
-5z"/>
<path d="M2551 473 c7 -12 15 -20 18 -17 3 2 -3 12 -13 22 -17 16 -18 16 -5
-5z"/>
<path d="M2609 458 c4 -28 6 -29 9 -9 2 13 0 27 -5 32 -6 6 -7 -3 -4 -23z"/>
<path d="M2634 476 c-3 -8 -4 -21 -1 -28 3 -7 6 -3 6 10 1 12 6 22 12 22 5 0
7 -4 4 -10 -3 -5 -1 -10 5 -10 15 0 8 22 -8 28 -7 2 -15 -3 -18 -12z"/>
<path d="M2686 482 c-3 -5 4 -16 15 -25 10 -9 19 -12 19 -7 0 6 -7 13 -15 16
-8 4 -12 10 -9 15 3 5 3 9 0 9 -3 0 -7 -4 -10 -8z"/>
<path d="M2750 484 c0 -5 7 -18 15 -28 8 -11 15 -16 15 -10 0 5 -7 18 -15 28
-8 11 -15 16 -15 10z"/>
<path d="M2923 480 c2 -8 14 -16 28 -17 19 -1 20 -1 4 4 -11 3 -24 10 -28 17
-6 7 -7 6 -4 -4z"/>
<path d="M2135 470 c-7 -11 22 -26 32 -16 4 3 -1 6 -11 6 -9 0 -14 5 -11 10 3
6 4 10 1 10 -3 0 -8 -5 -11 -10z"/>
<path d="M2198 468 c10 -13 10 -17 0 -21 -9 -4 -9 -6 -1 -6 20 -2 24 16 5 30
-15 13 -16 12 -4 -3z"/>
<path d="M2502 455 c0 -16 2 -22 5 -12 2 9 2 23 0 30 -3 6 -5 -1 -5 -18z"/>
<path d="M2582 455 c0 -16 2 -22 5 -12 2 9 2 23 0 30 -3 6 -5 -1 -5 -18z"/>
<path d="M2394 450 c1 -8 10 -16 21 -17 15 -1 15 0 3 3 -9 3 -19 11 -21 17 -2
7 -3 5 -3 -3z"/>
<path d="M2450 440 c0 -6 7 -10 15 -10 8 0 15 2 15 4 0 2 -7 6 -15 10 -8 3
-15 1 -15 -4z"/>
<path d="M2528 438 c5 -5 16 -8 23 -6 8 3 3 7 -10 11 -17 4 -21 3 -13 -5z"/>
</g>
</svg>
